<svg id="Warstwa_1" data-name="Warstwa 1" xmlns="http://www.w3.org/2000/svg" xmlns:xlink="http://www.w3.org/1999/xlink" viewBox="0 0 832 766"><defs><style>.cls-1{fill:none;}.cls-2{opacity:0.21;}.cls-3{fill:#ff9e5c;}.cls-4{fill:#ffb37b;}.cls-5{fill:#000060;}.cls-6{fill:#4d4d4d;}.cls-7{clip-path:url(#clip-path);}.cls-8{fill:#f19d11;}.cls-9{fill:#f09c11;}.cls-10{fill:#ef9b11;}.cls-11{fill:#ee9a11;}.cls-12{fill:#ee9912;}.cls-13{fill:#ed9812;}.cls-14{fill:#ec9712;}.cls-15{fill:#eb9612;}.cls-16{fill:#ea9512;}.cls-17{fill:#e99412;}.cls-18{fill:#e89312;}.cls-19{fill:#e79213;}.cls-20{fill:#e79113;}.cls-21{fill:#e69013;}.cls-22{fill:#e58f13;}.cls-23{fill:#e48e13;}.cls-24{fill:#e38d13;}.cls-25{fill:#e28c14;}.cls-26{fill:#e18b14;}.cls-27{fill:#e08a14;}.cls-28{fill:#e08914;}.cls-29{fill:#df8814;}.cls-30{fill:#de8714;}.cls-31{fill:#dd8614;}.cls-32{fill:#dc8515;}.cls-33{fill:#db8415;}.cls-34{fill:#da8315;}.cls-35{fill:#da8215;}.cls-36{fill:#d98015;}.cls-37{fill:#d87f15;}.cls-38{fill:#d77e15;}.cls-39{fill:#d67d16;}.cls-40{fill:#d57c16;}.cls-41{fill:#d47b16;}.cls-42{fill:#d37a16;}.cls-43{fill:#d37916;}.cls-44{fill:#d27816;}.cls-45{fill:#d17716;}.cls-46{fill:#d07617;}.cls-47{fill:#cf7517;}.cls-48{fill:#ce7417;}.cls-49{fill:#cd7317;}.cls-50{fill:#cc7217;}.cls-51{fill:#cc7117;}.cls-52{fill:#cb7018;}.cls-53{fill:#ca6f18;}.cls-54{fill:#c96e18;}.cls-55{fill:#c86d18;}.cls-56{fill:#c76c18;}.cls-57{fill:#c66b18;}.cls-58{fill:#c56a18;}.cls-59{fill:#c56919;}.cls-60{fill:#c46819;}.cls-61{fill:#c36719;}.cls-62{fill:#c26619;}.cls-63{clip-path:url(#clip-path-2);}.cls-64{fill:#724600;}.cls-65{fill:#fff;}.cls-66{clip-path:url(#clip-path-3);}.cls-67{fill:#ff69a6;}.cls-68,.cls-71,.cls-72{fill:#e6e6e6;}.cls-69{fill:#603813;}.cls-70{fill:#0071bc;}.cls-71,.cls-72{stroke:gray;stroke-linecap:round;stroke-linejoin:round;}.cls-71{stroke-width:6px;}.cls-72{stroke-width:4px;}</style><clipPath id="clip-path"><path id="SVGID" class="cls-1" d="M388.34,14.56S336.78,35.9,305.79,29.31,148.75,7.84,131,101c-54.73,29.51-44,93.37-23.83,144.08a37,37,0,0,1,19.33-9.1l1-.14a35.16,35.16,0,0,1,3.51-.31l4.71,31.86c3.36,22.73,37.05,17.75,33.69-5-3.32-22.42-9.24-47.25-10.68-71.26,10.58-40.91,52.92-44,132.12-55.66q2.25-.33,4.44-.69l1.33-.22,3.07-.53,1.37-.25,3.38-.64.77-.15c1.35-.27,2.66-.54,4-.82l1.12-.25,2.78-.63,1.31-.31,2.66-.65L318,130l3.48-.93.93-.26,2.5-.72,1.28-.38,2.12-.66,1.22-.39c.88-.28,1.75-.57,2.6-.86l1.21-.42,2.19-.78,1.28-.48,1.63-.62,1.31-.52c.54-.21,1.07-.43,1.59-.65s1.15-.47,1.7-.71l1.85-.81,1.34-.61,1.16-.54,1.37-.66,1-.5c1.66-.83,3.26-1.67,4.78-2.53l.67-.37c.47-.27.94-.54,1.4-.82l.59-.35c1.67-1,3.24-2,4.73-3l0,0,1.43-1,.25-.18c2-1.45,3.85-2.91,5.54-4.37a103.72,103.72,0,0,1,32.31,50.32l.9-.56C441.47,81.14,420.81,32,388.34,14.56Z"/></clipPath><clipPath id="clip-path-2"><path id="SVGID-2" data-name="SVGID" class="cls-1" d="M144.41,314.92l-.7.2c.91,1.37,1.41,2.1,1.41,2.1l.18-.12c-.13-.61-.25-1.23-.37-1.85A.41.41,0,0,0,144.41,314.92Z"/></clipPath><clipPath id="clip-path-3"><path id="SVGID-3" data-name="SVGID" class="cls-1" d="M275.94,307.58a48.82,48.82,0,1,0,96.59-14.28Z"/></clipPath></defs><title>Obszar roboczy 6 kopia 2</title><ellipse class="cls-2" cx="314.5" cy="696.77" rx="132.5" ry="35.36"/><rect class="cls-3" x="259.02" y="316.12" width="65.51" height="107.62" rx="29.11" transform="translate(-41.01 36.42) rotate(-6.67)"/><path class="cls-4" d="M404.62,170.26a104.35,104.35,0,0,0-35.37-64.41c-13.8,12-37.58,23.56-78.48,29.6-79.2,11.71-121.54,14.75-132.12,55.66,1.44,24,7.36,48.84,10.68,71.26,3.36,22.73-30.33,27.71-33.69,5l-4.71-31.86a35.16,35.16,0,0,0-3.51.31l-1,.14c-21,3.11-35.38,23.43-32.13,45.39l.12.8c3.24,21.94,22.88,37.22,43.85,34.12l1-.15a35.64,35.64,0,0,0,5.12-1.18.41.41,0,0,1,.52.33c9.93,53.4,58.49,90.05,110.3,82.39l82.55-12.21c53.32-7.88,89.86-59.48,81.61-115.26Z"/><path class="cls-5" d="M287.66,253.06c1,7-2.24,13.3-7.31,14.05s-10-4.32-11.08-11.34,2.24-13.31,7.32-14.06S286.62,246,287.66,253.06Z"/><path class="cls-5" d="M391,237.78c1,7-2.24,13.31-7.32,14.06s-10-4.33-11.07-11.34,2.24-13.31,7.32-14.06S390,230.76,391,237.78Z"/><path class="cls-6" d="M288.42,270.05l-44.77,6.43a14.58,14.58,0,0,1-16.49-12.35l-3.58-24.87a14.6,14.6,0,0,1,12.36-16.5l44.76-6.43a14.59,14.59,0,0,1,16.5,12.36l3.57,24.87A14.58,14.58,0,0,1,288.42,270.05Zm-51.77-42.31a9.55,9.55,0,0,0-8.09,10.81l3.57,24.87a9.56,9.56,0,0,0,10.81,8.09l44.77-6.43a9.56,9.56,0,0,0,8.09-10.81l-3.57-24.87a9.56,9.56,0,0,0-10.81-8.09Z"/><path class="cls-6" d="M394.87,254.77,350.1,261.2a14.6,14.6,0,0,1-16.5-12.36L330,224a14.59,14.59,0,0,1,12.35-16.49l44.77-6.43a14.59,14.59,0,0,1,16.5,12.35l3.57,24.87A14.6,14.6,0,0,1,394.87,254.77ZM343.1,212.45a9.57,9.57,0,0,0-8.1,10.81l3.58,24.87a9.54,9.54,0,0,0,10.8,8.09l44.77-6.43A9.56,9.56,0,0,0,402.24,239l-3.57-24.87A9.55,9.55,0,0,0,387.86,206Z"/><g class="cls-7"><polygon class="cls-8" points="435.53 39.74 383.9 -25.93 425.24 -31.87 435.53 39.74"/><polygon class="cls-8" points="437.48 53.3 376.07 -24.81 383.9 -25.93 435.53 39.74 437.48 53.3"/><polygon class="cls-9" points="439.42 66.85 368.25 -23.68 376.07 -24.81 437.48 53.3 439.42 66.85"/><polygon class="cls-10" points="441.37 80.4 360.43 -22.56 368.25 -23.68 439.42 66.85 441.37 80.4"/><polygon class="cls-11" points="443.31 93.95 352.6 -21.43 360.43 -22.56 441.37 80.4 443.31 93.95"/><polygon class="cls-12" points="445.26 107.51 344.77 -20.31 352.6 -21.43 443.31 93.95 445.26 107.51"/><polygon class="cls-13" points="447.21 121.06 336.95 -19.19 344.77 -20.31 445.26 107.51 447.21 121.06"/><polygon class="cls-14" points="447.46 122.79 442.76 126.48 329.13 -18.06 336.95 -19.19 447.21 121.06 447.46 122.79"/><polygon class="cls-15" points="442.76 126.48 437.38 130.71 321.3 -16.94 329.13 -18.06 442.76 126.48"/><polygon class="cls-16" points="437.38 130.71 432 134.94 313.48 -15.82 321.3 -16.94 437.38 130.71"/><polygon class="cls-17" points="432 134.94 426.62 139.17 305.65 -14.69 313.48 -15.82 432 134.94"/><polygon class="cls-18" points="426.62 139.17 421.23 143.41 297.83 -13.57 305.65 -14.69 426.62 139.17"/><polygon class="cls-19" points="421.23 143.41 415.85 147.64 290 -12.44 297.83 -13.57 421.23 143.41"/><polygon class="cls-20" points="415.85 147.64 410.47 151.87 282.18 -11.32 290 -12.44 415.85 147.64"/><polygon class="cls-21" points="410.47 151.87 405.09 156.1 274.35 -10.2 282.18 -11.32 410.47 151.87"/><polygon class="cls-22" points="405.09 156.1 399.71 160.33 266.53 -9.07 274.35 -10.2 405.09 156.1"/><polygon class="cls-23" points="399.71 160.33 394.32 164.56 258.7 -7.95 266.53 -9.07 399.71 160.33"/><polygon class="cls-24" points="394.32 164.56 388.94 168.79 250.88 -6.83 258.7 -7.95 394.32 164.56"/><polygon class="cls-25" points="388.94 168.79 383.56 173.02 243.06 -5.7 250.88 -6.83 388.94 168.79"/><polygon class="cls-26" points="383.56 173.02 378.18 177.25 235.23 -4.58 243.06 -5.7 383.56 173.02"/><polygon class="cls-27" points="378.18 177.25 372.8 181.49 227.41 -3.45 235.23 -4.58 378.18 177.25"/><polygon class="cls-28" points="372.8 181.49 367.42 185.72 219.58 -2.33 227.41 -3.45 372.8 181.49"/><polygon class="cls-29" points="367.42 185.72 362.03 189.95 211.76 -1.21 219.58 -2.33 367.42 185.72"/><polygon class="cls-30" points="362.03 189.95 356.65 194.18 203.93 -0.08 211.76 -1.21 362.03 189.95"/><polygon class="cls-31" points="356.65 194.18 351.27 198.41 196.11 1.04 203.93 -0.08 356.65 194.18"/><polygon class="cls-32" points="351.27 198.41 345.89 202.64 188.28 2.17 196.11 1.04 351.27 198.41"/><polygon class="cls-33" points="345.89 202.64 340.51 206.87 180.46 3.29 188.28 2.17 345.89 202.64"/><polygon class="cls-34" points="340.51 206.87 335.13 211.1 172.63 4.41 180.46 3.29 340.51 206.87"/><polygon class="cls-35" points="335.13 211.1 329.74 215.33 164.81 5.54 172.63 4.41 335.13 211.1"/><polygon class="cls-36" points="329.74 215.33 324.36 219.56 156.98 6.66 164.81 5.54 329.74 215.33"/><polygon class="cls-37" points="324.36 219.56 318.98 223.79 149.16 7.78 156.98 6.66 324.36 219.56"/><polygon class="cls-38" points="318.98 223.79 313.6 228.03 142.41 10.27 144.77 8.41 149.16 7.78 318.98 223.79"/><rect class="cls-39" x="221.89" y="-17.23" width="6.85" height="276.99" transform="translate(-26.76 165.18) rotate(-38.17)"/><rect class="cls-40" x="216.51" y="-13" width="6.85" height="276.99" transform="translate(-30.53 162.76) rotate(-38.17)"/><rect class="cls-41" x="211.13" y="-8.77" width="6.85" height="276.99" transform="translate(-34.29 160.34) rotate(-38.17)"/><rect class="cls-42" x="205.74" y="-4.54" width="6.85" height="276.99" transform="translate(-38.06 157.92) rotate(-38.17)"/><rect class="cls-43" x="200.36" y="-0.3" width="6.85" height="276.99" transform="translate(-41.83 155.5) rotate(-38.17)"/><rect class="cls-44" x="194.98" y="3.93" width="6.85" height="276.99" transform="matrix(0.79, -0.62, 0.62, 0.79, -45.59, 153.08)"/><rect class="cls-45" x="189.6" y="8.16" width="6.85" height="276.99" transform="translate(-49.36 150.66) rotate(-38.17)"/><rect class="cls-46" x="184.22" y="12.39" width="6.85" height="276.99" transform="translate(-53.12 148.23) rotate(-38.17)"/><rect class="cls-47" x="178.83" y="16.62" width="6.85" height="276.99" transform="translate(-56.89 145.81) rotate(-38.17)"/><rect class="cls-48" x="173.45" y="20.85" width="6.85" height="276.99" transform="translate(-60.66 143.39) rotate(-38.17)"/><polygon class="cls-49" points="259.78 270.34 256.05 273.27 253.65 273.61 83.21 56.81 88.59 52.58 259.78 270.34"/><polygon class="cls-50" points="245.82 274.74 77.83 61.05 83.21 56.81 253.65 273.61 245.82 274.74"/><polygon class="cls-51" points="238 275.86 72.44 65.28 77.83 61.05 245.82 274.74 238 275.86"/><polygon class="cls-52" points="230.17 276.98 67.56 70.14 67.43 69.22 72.44 65.28 238 275.86 230.17 276.98"/><polygon class="cls-53" points="222.35 278.11 69.51 83.69 67.56 70.14 230.17 276.98 222.35 278.11"/><polygon class="cls-54" points="214.52 279.23 71.45 97.25 69.51 83.69 222.35 278.11 214.52 279.23"/><polygon class="cls-55" points="206.7 280.36 73.4 110.8 71.45 97.25 214.52 279.23 206.7 280.36"/><polygon class="cls-56" points="198.87 281.48 75.35 124.35 73.4 110.8 206.7 280.36 198.87 281.48"/><polygon class="cls-57" points="191.05 282.6 77.29 137.91 75.35 124.35 198.87 281.48 191.05 282.6"/><polygon class="cls-58" points="183.22 283.73 79.24 151.46 77.29 137.91 191.05 282.6 183.22 283.73"/><polygon class="cls-59" points="175.4 284.85 81.19 165.01 79.24 151.46 183.22 283.73 175.4 284.85"/><polygon class="cls-60" points="167.57 285.98 83.13 178.56 81.19 165.01 175.4 284.85 167.57 285.98"/><polygon class="cls-61" points="159.75 287.1 85.08 192.12 83.13 178.56 167.57 285.98 159.75 287.1"/><polygon class="cls-62" points="151.93 288.22 87.03 205.67 85.08 192.12 159.75 287.1 151.93 288.22"/><polygon class="cls-62" points="87.03 205.67 151.93 288.22 99.95 295.69 87.03 205.67"/></g><g class="cls-63"><rect class="cls-8" x="143.86" y="314.88" width="1.29" height="2.41" transform="matrix(0.99, -0.14, 0.14, 0.99, -43.47, 23.75)"/></g><path class="cls-64" d="M211.52,212.39a5,5,0,0,1-2.22-9.74l51.18-18.05a5,5,0,1,1,3.34,9.48l-51.18,18A5,5,0,0,1,211.52,212.39Z"/><path class="cls-64" d="M389.29,191.31,338.4,173.1a5.59,5.59,0,0,1,3.75-10.47L393,180.84a5.59,5.59,0,0,1-3.75,10.47Z"/><path class="cls-65" d="M275.94,307.58a48.82,48.82,0,1,0,96.59-14.28Z"/><g class="cls-66"><ellipse class="cls-67" cx="310.51" cy="347.56" rx="32.16" ry="21.11" transform="translate(-22.24 21.23) rotate(-3.78)"/></g><path class="cls-4" d="M523.93,437l37.85,2.26s20.82-2.67,25.74,5-24.6,9.73-24.6,9.73,19.19.5,21.09,6.71S556.86,466,556.86,466s11.49,1.71,10.69,8.3S530.8,478.53,517,460.19l-2.69-11.81A9.29,9.29,0,0,1,523.93,437Z"/><path class="cls-4" d="M390.66,440.8s47.57,54.74,128.2-3.53l16.69,19.24s-57.49,68.17-142.28,24.19"/><path class="cls-68" d="M372,424.34h23.82A20.19,20.19,0,0,1,416,444.53V501.9a0,0,0,0,1,0,0h-64.2a0,0,0,0,1,0,0V444.53A20.19,20.19,0,0,1,372,424.34Z" transform="translate(962.7 299.02) rotate(113.83)"/><path class="cls-4" d="M226.53,567.92s22.57,3.8,33.78,19.33-5,16.38-20.25-.94c17.74,33.15,11.9,42.8,7,41.31-7.15-2.15-15.1-20.93-15.1-20.93s8.25,19.3,2.25,26.12-16.06-21-16.06-21,4.75,18.6-.71,22.12-12.52-24.67-12.52-24.67,1.48,11.52-5.07,12.55-14.08-34.21-.2-52.5"/><path class="cls-4" d="M233,480s-47,38-10,96l-21,13s-58.51-48.28,1-123"/><path class="cls-68" d="M193.73,435.19h64.2a0,0,0,0,1,0,0v67.7a21.79,21.79,0,0,1-21.79,21.79H215.53a21.79,21.79,0,0,1-21.79-21.79v-67.7A0,0,0,0,1,193.73,435.19Z" transform="translate(429.77 -9.7) rotate(47.81)"/><path class="cls-4" d="M262.51,556.46s31.74,48.4,18.16,132.61l-22.13,8.51s4.09-78.28-21.37-137"/><path class="cls-69" d="M255.61,687.55S239,688,235.73,700.87a4.4,4.4,0,0,0,4.47,5.48l41.41-2.07a4.39,4.39,0,0,0,4.17-4.6l-.46-9.22a4.39,4.39,0,0,0-4.6-4.17Z"/><path class="cls-4" d="M351.19,545.59S384.11,595.8,370,683.13L347.08,692s4.24-81.19-22.18-142"/><path class="cls-69" d="M375.17,678.48s17.25-.82,21.59,12.23a4.56,4.56,0,0,1-4.2,6l-43,1.09a4.54,4.54,0,0,1-4.67-4.43l-.24-9.57a4.54,4.54,0,0,1,4.43-4.67Z"/><path class="cls-70" d="M240.12,616.33l68.3,8.54-5.27,24.21a17.21,17.21,0,0,1-16.43,18l-21.13.94a17.21,17.21,0,0,1-18-16.43Z"/><path class="cls-70" d="M323.94,622.54l67.52-30.27-3,51.49a17.89,17.89,0,0,1-17.07,18.65l-19.8.88A17.86,17.86,0,0,1,333,646.23Z"/><path class="cls-70" d="M237.55,570.55l152.33-6.77,1.81,40.65a29.24,29.24,0,0,1-27.92,30.51l-37.5-10.85-24.84,1.55-31.56,13.48a29.25,29.25,0,0,1-30.51-27.92Z"/><path class="cls-65" d="M272.63,406.07h64.74a46.18,46.18,0,0,1,46.18,46.18V566.14a9.29,9.29,0,0,1-9.29,9.29H235a8.57,8.57,0,0,1-8.57-8.57V452.25a46.18,46.18,0,0,1,46.18-46.18Z" transform="translate(-57.97 41.18) rotate(-7.06)"/><rect class="cls-69" x="232.69" y="564.44" width="165.16" height="23.52" rx="7.38" transform="translate(-50.22 30.47) rotate(-5.13)"/><rect class="cls-71" x="465" y="432.74" width="184.3" height="5.26" rx="2.53"/><polygon class="cls-72" points="658.48 432.74 530.91 432.74 575.43 346 703 346 658.48 432.74"/><path class="cls-6" d="M612.05,409.57c-1-.61-1.83-1.15-2.68-1.72a1.31,1.31,0,0,0-1.14-.21c-.76.18-1.55.22-2.32.35a1.08,1.08,0,0,0-.6.28c-.73.78-1.45,1.58-2.15,2.38a.62.62,0,0,1-.8.19q-2.11-.88-4.26-1.74a.7.7,0,0,1-.49-.81q.1-1.53.15-3.06a1.19,1.19,0,0,0-.25-.62c-.5-.67-1-1.34-1.56-2a1.35,1.35,0,0,0-.63-.43c-1-.24-2-.45-3-.65a.65.65,0,0,1-.6-.63c-.18-1.52-.38-3-.59-4.56a.68.68,0,0,1,.43-.8c.92-.44,1.84-.9,2.74-1.39a1.14,1.14,0,0,0,.43-.51c.36-.81.7-1.64,1-2.47a1,1,0,0,0,0-.58c-.3-1-.62-2-1-3a.66.66,0,0,1,.26-.86c1.23-.91,2.46-1.84,3.67-2.78a.64.64,0,0,1,.86,0c.84.58,1.7,1.15,2.56,1.68a1.12,1.12,0,0,0,.7.13c.75-.08,1.49-.19,2.23-.32a1.17,1.17,0,0,0,.6-.29c.72-.79,1.42-1.6,2.11-2.42a.6.6,0,0,1,.79-.19c1.46.58,2.91,1.16,4.37,1.72a.59.59,0,0,1,.42.66c-.05,1.05-.09,2.11-.1,3.16a1,1,0,0,0,.22.58c.54.69,1.09,1.38,1.65,2.05a1,1,0,0,0,.51.34c1,.24,2.06.45,3.1.63a.69.69,0,0,1,.66.67c.2,1.51.42,3,.65,4.51a.66.66,0,0,1-.41.8c-.91.46-1.82.94-2.72,1.43a1.11,1.11,0,0,0-.42.51c-.34.81-.66,1.63-1,2.45a1,1,0,0,0,0,.63c.31,1,.65,2,1,3.05a.63.63,0,0,1-.25.82c-1.22.93-2.42,1.88-3.64,2.81A1.84,1.84,0,0,1,612.05,409.57Zm-1.8-11a5,5,0,1,0-6.52,2.84A5,5,0,0,0,610.25,398.54Z"/><path class="cls-6" d="M635.31,374.68c-.47.83-.85,1.55-1.27,2.24a1,1,0,0,0-.1.85c.16.59.23,1.19.38,1.78a1,1,0,0,0,.3.55c.62.53,1.25,1,1.9,1.53a.64.64,0,0,1,.25.83c-.42,1.14-.81,2.29-1.19,3.44a.62.62,0,0,1-.67.49c-.8,0-1.6,0-2.39,0a1.06,1.06,0,0,0-.58.24c-.45.38-.85.82-1.33,1.17a1.13,1.13,0,0,0-.49.86c-.09.73-.23,1.45-.33,2.18a.65.65,0,0,1-.63.64c-1.18.21-2.36.43-3.53.67a.65.65,0,0,1-.79-.36c-.37-.67-.75-1.34-1.16-2a1.26,1.26,0,0,0-.57-.44c-.54-.21-1.12-.35-1.66-.58a1.07,1.07,0,0,0-.91,0c-.71.29-1.43.55-2.15.83a.59.59,0,0,1-.79-.2c-.78-.93-1.56-1.86-2.36-2.77a.67.67,0,0,1-.07-.9c.39-.64.79-1.29,1.13-1.95a1.3,1.3,0,0,0,.09-.76c-.08-.61-.2-1.22-.34-1.83a1.1,1.1,0,0,0-.3-.55c-.6-.53-1.22-1-1.85-1.52a.67.67,0,0,1-.25-.87c.43-1.12.84-2.25,1.23-3.38a.65.65,0,0,1,.74-.51c.76,0,1.53,0,2.3,0a1.09,1.09,0,0,0,.61-.25,14,14,0,0,0,1.22-1.08,1.17,1.17,0,0,0,.35-.62c.14-.78.24-1.57.34-2.37a.63.63,0,0,1,.57-.6c1.21-.23,2.41-.48,3.62-.73a.61.61,0,0,1,.74.35c.4.69.81,1.38,1.24,2.05a.86.86,0,0,0,.42.33c.63.22,1.27.43,1.91.61a1,1,0,0,0,.63,0c.77-.28,1.52-.59,2.27-.9a.63.63,0,0,1,.81.18c.8.93,1.62,1.85,2.42,2.79A2.14,2.14,0,0,1,635.31,374.68ZM628.86,382a4,4,0,1,0-5.22,2.16A4,4,0,0,0,628.86,382Z"/></svg>