<svg id="Warstwa_1" data-name="Warstwa 1" xmlns="http://www.w3.org/2000/svg" xmlns:xlink="http://www.w3.org/1999/xlink" viewBox="0 0 832 766"><defs><style>.cls-1{fill:none;}.cls-2{opacity:0.21;}.cls-3{fill:#ff9e5c;}.cls-4{fill:#ffb37b;}.cls-5{fill:#000060;}.cls-6{fill:#4d4d4d;}.cls-7{fill:#724600;}.cls-8{fill:#fff;}.cls-9{clip-path:url(#clip-path);}.cls-10{fill:#ff69a6;}.cls-11{fill:url(#Gradient_bez_nazwy_61);}.cls-12,.cls-15,.cls-16{fill:#e6e6e6;}.cls-13{fill:#603813;}.cls-14{fill:#0071bc;}.cls-15,.cls-16{stroke:gray;stroke-linecap:round;stroke-linejoin:round;}.cls-15{stroke-width:6px;}.cls-16{stroke-width:4px;}</style><clipPath id="clip-path"><path id="SVGID" class="cls-1" d="M365.94,307.58a48.82,48.82,0,1,0,96.59-14.28Z"/></clipPath><linearGradient id="Gradient_bez_nazwy_61" x1="516.99" y1="159.47" x2="192.55" y2="346.79" gradientTransform="translate(-35.81 -80.73) rotate(-7.81)" gradientUnits="userSpaceOnUse"><stop offset="0.01" stop-color="#f19d11"/><stop offset="1" stop-color="#c26619"/></linearGradient></defs><title>Obszar roboczy 6 kopia 2</title><ellipse class="cls-2" cx="404.5" cy="696.77" rx="132.5" ry="35.36"/><rect class="cls-3" x="349.02" y="316.12" width="65.51" height="107.62" rx="29.11" transform="translate(-40.4 46.87) rotate(-6.67)"/><path class="cls-4" d="M494.62,170.26A107.09,107.09,0,0,0,492,158l-.74.47a103.23,103.23,0,0,0-31.84-50.28q-2.54,2.18-5.53,4.32l-.26.18-1.42,1-.05,0c-1.49,1-3.07,2-4.73,3l-.59.35c-.46.27-.92.54-1.4.8l-.67.37q-2.28,1.26-4.77,2.49l-1,.49-1.36.64-1.16.54-1.34.6-1.84.78-1.7.7-1.58.64-1.31.5-1.63.61c-.42.16-.84.32-1.28.47l-2.18.77-1.2.4-2.6.85-1.22.38-2.11.64-1.27.37-2.5.7-.92.25c-1.14.31-2.29.61-3.47.9l-1.08.27-2.64.63-1.31.3-2.77.61-1.11.24-3.95.79-.78.15-3.35.61-1.37.24-3.06.51-1.33.21c-1.45.23-2.92.45-4.42.66-78.87,11.15-121,13.9-131.81,54.54,1.28,23.9,7,48.64,10.18,71,3.2,22.64-30.35,27.38-33.55,4.75q-2.25-15.87-4.49-31.73a31.75,31.75,0,0,0-3.49.28l-1,.14A36.79,36.79,0,0,0,197.78,245l-.15-.4a40.57,40.57,0,0,0-13.3,36.74l.12.8c3.24,21.94,22.88,37.22,43.85,34.12l1-.15a35.64,35.64,0,0,0,5.12-1.18.41.41,0,0,1,.52.33c9.93,53.4,58.49,90.05,110.3,82.39l82.55-12.21c53.32-7.88,89.86-59.48,81.61-115.26Z"/><path class="cls-5" d="M377.66,253.06c1,7-2.24,13.3-7.31,14.05s-10-4.32-11.08-11.34,2.24-13.31,7.32-14.06S376.62,246,377.66,253.06Z"/><path class="cls-5" d="M481,237.78c1,7-2.24,13.31-7.32,14.06s-10-4.33-11.07-11.34,2.24-13.31,7.32-14.06S480,230.76,481,237.78Z"/><path class="cls-6" d="M378.42,270.05l-44.77,6.43a14.58,14.58,0,0,1-16.49-12.35l-3.58-24.87a14.6,14.6,0,0,1,12.36-16.5l44.76-6.43a14.59,14.59,0,0,1,16.5,12.36l3.57,24.87A14.58,14.58,0,0,1,378.42,270.05Zm-51.77-42.31a9.55,9.55,0,0,0-8.09,10.81l3.57,24.87a9.56,9.56,0,0,0,10.81,8.09l44.77-6.43a9.56,9.56,0,0,0,8.09-10.81l-3.57-24.87a9.56,9.56,0,0,0-10.81-8.09Z"/><path class="cls-6" d="M484.87,254.77,440.1,261.2a14.6,14.6,0,0,1-16.5-12.36L420,224a14.59,14.59,0,0,1,12.35-16.49l44.77-6.43a14.59,14.59,0,0,1,16.5,12.35l3.57,24.87A14.6,14.6,0,0,1,484.87,254.77ZM433.1,212.45a9.57,9.57,0,0,0-8.1,10.81l3.58,24.87a9.54,9.54,0,0,0,10.8,8.09l44.77-6.43A9.56,9.56,0,0,0,492.24,239l-3.57-24.87A9.55,9.55,0,0,0,477.86,206Z"/><path class="cls-7" d="M301.52,212.39a5,5,0,0,1-2.22-9.74l51.18-18.05a5,5,0,1,1,3.34,9.48l-51.18,18A5,5,0,0,1,301.52,212.39Z"/><path class="cls-7" d="M479.29,191.31,428.4,173.1a5.59,5.59,0,0,1,3.75-10.47L483,180.84a5.59,5.59,0,0,1-3.75,10.47Z"/><path class="cls-8" d="M365.94,307.58a48.82,48.82,0,1,0,96.59-14.28Z"/><g class="cls-9"><ellipse class="cls-10" cx="400.51" cy="347.56" rx="32.16" ry="21.11" transform="translate(-22.05 27.17) rotate(-3.78)"/></g><path class="cls-11" d="M479,17.45S427.6,38.36,396.81,31.6,240.69,9.25,222.41,101.79c-54.65,29-44.39,92.62-24.63,143.2a36.79,36.79,0,0,1,19.29-8.92l1-.14a31.75,31.75,0,0,1,3.49-.28q2.25,15.85,4.49,31.73c3.2,22.63,36.75,17.89,33.55-4.75-3.16-22.33-8.9-47.07-10.18-71,10.79-40.64,52.94-43.39,131.81-54.54,1.5-.21,3-.43,4.42-.66l1.33-.21,3.06-.51,1.37-.24,3.35-.61.78-.15,3.95-.79,1.11-.24,2.77-.61,1.31-.3,2.64-.63,1.08-.27c1.18-.29,2.33-.59,3.47-.9l.93-.25,2.49-.7,1.27-.37,2.11-.64,1.22-.38,2.6-.85,1.2-.4,2.19-.77,1.27-.47,1.63-.61,1.31-.5,1.58-.64,1.7-.7,1.84-.78,1.34-.6,1.16-.54,1.36-.64,1-.49q2.49-1.23,4.77-2.49l.67-.37c.48-.26.94-.53,1.4-.8l.59-.35c1.66-1,3.24-2,4.73-3l.05,0,1.42-1,.26-.18q3-2.15,5.53-4.32a103.23,103.23,0,0,1,31.84,50.28l.89-.56C531.48,84,511.23,35,479,17.45Z"/><path class="cls-4" d="M613.93,437l37.85,2.26s20.82-2.67,25.74,5-24.6,9.73-24.6,9.73,19.19.5,21.09,6.71S646.86,466,646.86,466s11.49,1.71,10.69,8.3S620.8,478.53,607,460.19l-2.69-11.81A9.29,9.29,0,0,1,613.93,437Z"/><path class="cls-4" d="M480.66,440.8s47.57,54.74,128.2-3.53l16.69,19.24s-57.49,68.17-142.28,24.19"/><path class="cls-12" d="M462,424.34h23.82A20.19,20.19,0,0,1,506,444.53V501.9a0,0,0,0,1,0,0h-64.2a0,0,0,0,1,0,0V444.53A20.19,20.19,0,0,1,462,424.34Z" transform="translate(1089.07 216.7) rotate(113.83)"/><path class="cls-4" d="M316.53,567.92s22.57,3.8,33.78,19.33-5,16.38-20.25-.94c17.74,33.15,11.9,42.8,7,41.31-7.15-2.15-15.1-20.93-15.1-20.93s8.25,19.3,2.25,26.12-16.06-21-16.06-21,4.75,18.6-.71,22.12-12.52-24.67-12.52-24.67,1.48,11.52-5.07,12.55-14.08-34.21-.2-52.5"/><path class="cls-4" d="M323,480s-47,38-10,96l-21,13s-58.51-48.28,1-123"/><path class="cls-12" d="M283.73,435.19h64.2a0,0,0,0,1,0,0v67.7a21.79,21.79,0,0,1-21.79,21.79H305.53a21.79,21.79,0,0,1-21.79-21.79v-67.7A0,0,0,0,1,283.73,435.19Z" transform="translate(459.33 -76.39) rotate(47.81)"/><path class="cls-4" d="M352.51,556.46s31.74,48.4,18.16,132.61l-22.13,8.51s4.09-78.28-21.37-137"/><path class="cls-13" d="M345.61,687.55S329,688,325.73,700.87a4.4,4.4,0,0,0,4.47,5.48l41.41-2.07a4.39,4.39,0,0,0,4.17-4.6l-.46-9.22a4.39,4.39,0,0,0-4.6-4.17Z"/><path class="cls-4" d="M441.19,545.59S474.11,595.8,460,683.13L437.08,692s4.24-81.19-22.18-142"/><path class="cls-13" d="M465.17,678.48s17.25-.82,21.59,12.23a4.56,4.56,0,0,1-4.2,6l-43,1.09a4.54,4.54,0,0,1-4.67-4.43l-.24-9.57a4.54,4.54,0,0,1,4.43-4.67Z"/><path class="cls-14" d="M330.12,616.33l68.3,8.54-5.27,24.21a17.21,17.21,0,0,1-16.43,18l-21.13.94a17.21,17.21,0,0,1-18-16.43Z"/><path class="cls-14" d="M413.94,622.54l67.52-30.27-3,51.49a17.89,17.89,0,0,1-17.07,18.65l-19.8.88A17.86,17.86,0,0,1,423,646.23Z"/><path class="cls-14" d="M327.55,570.55l152.33-6.77,1.81,40.65a29.24,29.24,0,0,1-27.92,30.51l-37.5-10.85-24.84,1.55-31.56,13.48a29.25,29.25,0,0,1-30.51-27.92Z"/><path class="cls-8" d="M362.63,406.07h64.74a46.18,46.18,0,0,1,46.18,46.18V566.14a9.29,9.29,0,0,1-9.29,9.29H325a8.57,8.57,0,0,1-8.57-8.57V452.25a46.18,46.18,0,0,1,46.18-46.18Z" transform="translate(-57.29 52.23) rotate(-7.06)"/><rect class="cls-13" x="322.69" y="564.44" width="165.16" height="23.52" rx="7.38" transform="translate(-49.86 38.51) rotate(-5.13)"/><rect class="cls-15" x="555" y="432.74" width="184.3" height="5.26" rx="2.53"/><polygon class="cls-16" points="748.48 432.74 620.91 432.74 665.43 346 793 346 748.48 432.74"/><path class="cls-6" d="M702.05,409.57c-1-.61-1.83-1.15-2.68-1.72a1.31,1.31,0,0,0-1.14-.21c-.76.18-1.55.22-2.32.35a1.08,1.08,0,0,0-.6.28c-.73.78-1.45,1.58-2.15,2.38a.62.62,0,0,1-.8.19q-2.11-.88-4.26-1.74a.7.7,0,0,1-.49-.81q.1-1.53.15-3.06a1.19,1.19,0,0,0-.25-.62c-.5-.67-1-1.34-1.56-2a1.35,1.35,0,0,0-.63-.43c-1-.24-2-.45-3-.65a.65.65,0,0,1-.6-.63c-.18-1.52-.38-3-.59-4.56a.68.68,0,0,1,.43-.8c.92-.44,1.84-.9,2.74-1.39a1.14,1.14,0,0,0,.43-.51c.36-.81.7-1.64,1-2.47a1,1,0,0,0,0-.58c-.3-1-.62-2-1-3a.66.66,0,0,1,.26-.86c1.23-.91,2.46-1.84,3.67-2.78a.64.64,0,0,1,.86,0c.84.58,1.7,1.15,2.56,1.68a1.12,1.12,0,0,0,.7.13c.75-.08,1.49-.19,2.23-.32a1.17,1.17,0,0,0,.6-.29c.72-.79,1.42-1.6,2.11-2.42a.6.6,0,0,1,.79-.19c1.46.58,2.91,1.16,4.37,1.72a.59.59,0,0,1,.42.66c-.05,1.05-.09,2.11-.1,3.16a1,1,0,0,0,.22.58c.54.69,1.09,1.38,1.65,2.05a1,1,0,0,0,.51.34c1,.24,2.06.45,3.1.63a.69.69,0,0,1,.66.67c.2,1.51.42,3,.65,4.51a.66.66,0,0,1-.41.8c-.91.46-1.82.94-2.72,1.43a1.11,1.11,0,0,0-.42.51c-.34.81-.66,1.63-1,2.45a1,1,0,0,0,0,.63c.31,1,.65,2,1,3.05a.63.63,0,0,1-.25.82c-1.22.93-2.42,1.88-3.64,2.81A1.84,1.84,0,0,1,702.05,409.57Zm-1.8-11a5,5,0,1,0-6.52,2.84A5,5,0,0,0,700.25,398.54Z"/><path class="cls-6" d="M725.31,374.68c-.47.83-.85,1.55-1.27,2.24a1,1,0,0,0-.1.85c.16.59.23,1.19.38,1.78a1,1,0,0,0,.3.55c.62.53,1.25,1,1.9,1.53a.64.64,0,0,1,.25.83c-.42,1.14-.81,2.29-1.19,3.44a.62.62,0,0,1-.67.49c-.8,0-1.6,0-2.39,0a1.06,1.06,0,0,0-.58.24c-.45.38-.85.82-1.33,1.17a1.13,1.13,0,0,0-.49.86c-.09.73-.23,1.45-.33,2.18a.65.65,0,0,1-.63.64c-1.18.21-2.36.43-3.53.67a.65.65,0,0,1-.79-.36c-.37-.67-.75-1.34-1.16-2a1.26,1.26,0,0,0-.57-.44c-.54-.21-1.12-.35-1.66-.58a1.07,1.07,0,0,0-.91,0c-.71.29-1.43.55-2.15.83a.59.59,0,0,1-.79-.2c-.78-.93-1.56-1.86-2.36-2.77a.67.67,0,0,1-.07-.9c.39-.64.79-1.29,1.13-1.95a1.3,1.3,0,0,0,.09-.76c-.08-.61-.2-1.22-.34-1.83a1.1,1.1,0,0,0-.3-.55c-.6-.53-1.22-1-1.85-1.52a.67.67,0,0,1-.25-.87c.43-1.12.84-2.25,1.23-3.38a.65.65,0,0,1,.74-.51c.76,0,1.53,0,2.3,0a1.09,1.09,0,0,0,.61-.25,14,14,0,0,0,1.22-1.08,1.17,1.17,0,0,0,.35-.62c.14-.78.24-1.57.34-2.37a.63.63,0,0,1,.57-.6c1.21-.23,2.41-.48,3.62-.73a.61.61,0,0,1,.74.35c.4.69.81,1.38,1.24,2.05a.86.86,0,0,0,.42.33c.63.22,1.27.43,1.91.61a1,1,0,0,0,.63,0c.77-.28,1.52-.59,2.27-.9a.63.63,0,0,1,.81.18c.8.93,1.62,1.85,2.42,2.79A2.14,2.14,0,0,1,725.31,374.68ZM718.86,382a4,4,0,1,0-5.22,2.16A4,4,0,0,0,718.86,382Z"/></svg>