<svg id="Warstwa_1" data-name="Warstwa 1" xmlns="http://www.w3.org/2000/svg" xmlns:xlink="http://www.w3.org/1999/xlink" viewBox="0 0 832 766"><defs><style>.cls-1{fill:none;}.cls-2{opacity:0.21;}.cls-3{fill:#ff9e5c;}.cls-4{fill:#ffb37b;}.cls-5{fill:#000060;}.cls-6{fill:#fff;}.cls-7{clip-path:url(#clip-path);}.cls-8{fill:#ff69a6;}.cls-9{fill:#4d4d4d;}.cls-10{fill:#724600;}.cls-11{fill:url(#Gradient_bez_nazwy_61);}.cls-12{fill:url(#Gradient_bez_nazwy_61-2);}.cls-13{fill:#e6e6e6;}.cls-14{fill:#603813;}.cls-15{fill:#0071bc;}</style><clipPath id="clip-path"><path id="SVGID" class="cls-1" d="M381.94,304.58a48.82,48.82,0,1,0,96.59-14.28Z"/></clipPath><linearGradient id="Gradient_bez_nazwy_61" x1="552.24" y1="38.68" x2="227.79" y2="226" gradientTransform="translate(-27.31 43.73) rotate(-7.81)" gradientUnits="userSpaceOnUse"><stop offset="0.01" stop-color="#f19d11"/><stop offset="1" stop-color="#c26619"/></linearGradient><linearGradient id="Gradient_bez_nazwy_61-2" x1="250.74" y1="308.02" x2="-69.09" y2="492.68" xlink:href="#Gradient_bez_nazwy_61"/></defs><title>Obszar roboczy 6 kopia</title><ellipse class="cls-2" cx="431.5" cy="696.77" rx="132.5" ry="35.36"/><rect class="cls-3" x="376.02" y="316.12" width="65.51" height="107.62" rx="29.11" transform="translate(-40.22 50.01) rotate(-6.67)"/><path class="cls-4" d="M521.62,170.26A107.09,107.09,0,0,0,519,158l-.74.47a103.23,103.23,0,0,0-31.84-50.28q-2.54,2.18-5.53,4.32l-.26.18-1.42,1-.05,0c-1.49,1-3.07,2-4.73,3l-.59.35c-.46.27-.92.54-1.4.8l-.67.37q-2.28,1.26-4.77,2.49l-1,.49-1.36.64-1.16.54-1.34.6-1.84.78-1.7.7-1.58.64-1.31.5-1.63.61c-.42.16-.84.32-1.28.47l-2.18.77-1.2.4-2.6.85-1.22.38-2.11.64-1.27.37-2.49.7-.93.25c-1.14.31-2.29.61-3.47.9l-1.08.27-2.64.63-1.31.3-2.77.61-1.11.24-3.95.79-.78.15-3.35.61-1.37.24-3.06.51-1.33.21c-1.45.23-2.92.45-4.42.66-78.87,11.15-121,13.9-131.81,54.54,1.28,23.9,7,48.64,10.18,71,3.2,22.64-30.35,27.38-33.55,4.75q-2.25-15.87-4.49-31.73a31.75,31.75,0,0,0-3.49.28l-1,.14A36.79,36.79,0,0,0,224.78,245l-.15-.4a40.57,40.57,0,0,0-13.3,36.74l.12.8c3.24,21.94,22.87,37.22,43.85,34.12l1-.15a35.59,35.59,0,0,0,4.54-1l-.09-.14.7-.19a.4.4,0,0,1,.51.33c.11.62.23,1.23.35,1.85l0,0c10.64,52.46,58.71,88.25,110,80.68l82.55-12.21c53.32-7.88,89.86-59.48,81.61-115.26Z"/><path class="cls-5" d="M378.66,242.06c1,7-2.24,13.3-7.31,14.05s-10-4.32-11.08-11.34,2.24-13.31,7.32-14.06S377.62,235,378.66,242.06Z"/><path class="cls-5" d="M482,226.78c1,7-2.24,13.31-7.32,14.06s-10-4.33-11.07-11.34,2.24-13.31,7.32-14.06S481,219.76,482,226.78Z"/><path class="cls-6" d="M381.94,304.58a48.82,48.82,0,1,0,96.59-14.28Z"/><g class="cls-7"><ellipse class="cls-8" cx="416.51" cy="344.56" rx="32.16" ry="21.11" transform="translate(-21.81 28.22) rotate(-3.78)"/></g><path class="cls-9" d="M405.42,266.05l-44.77,6.43a14.58,14.58,0,0,1-16.49-12.35l-3.58-24.87a14.6,14.6,0,0,1,12.36-16.5l44.76-6.43a14.59,14.59,0,0,1,16.5,12.36l3.57,24.87A14.58,14.58,0,0,1,405.42,266.05Zm-51.77-42.31a9.55,9.55,0,0,0-8.09,10.81l3.57,24.87a9.56,9.56,0,0,0,10.81,8.09l44.77-6.43a9.56,9.56,0,0,0,8.09-10.81l-3.57-24.87a9.56,9.56,0,0,0-10.81-8.09Z"/><path class="cls-9" d="M511.87,250.77,467.1,257.2a14.6,14.6,0,0,1-16.5-12.36L447,220a14.59,14.59,0,0,1,12.35-16.49l44.77-6.43a14.59,14.59,0,0,1,16.5,12.35l3.57,24.87A14.6,14.6,0,0,1,511.87,250.77ZM460.1,208.45a9.57,9.57,0,0,0-8.1,10.81l3.58,24.87a9.54,9.54,0,0,0,10.8,8.09l44.77-6.43A9.56,9.56,0,0,0,519.24,235l-3.57-24.87A9.55,9.55,0,0,0,504.86,202Z"/><path class="cls-10" d="M329,213.21a5,5,0,0,1-2.53-9.66L377,183.82a5,5,0,0,1,3.65,9.36l-50.56,19.73A5,5,0,0,1,329,213.21Z"/><path class="cls-10" d="M484.6,184.62l-53.72,7.72a5,5,0,1,1-1.43-10l53.72-7.71a5,5,0,1,1,1.43,9.94Z"/><path class="cls-11" d="M506,17.45S454.6,38.36,423.81,31.6,267.69,9.25,249.41,101.79c-54.65,29-44.39,92.62-24.63,143.2a36.79,36.79,0,0,1,19.29-8.92l1-.14a31.75,31.75,0,0,1,3.49-.28q2.25,15.85,4.49,31.73c3.2,22.63,36.75,17.89,33.55-4.75-3.16-22.33-8.9-47.07-10.18-71,10.79-40.64,52.94-43.39,131.81-54.54,1.5-.21,3-.43,4.42-.66l1.33-.21,3.06-.51,1.37-.24,3.35-.61.78-.15,3.95-.79,1.11-.24,2.77-.61,1.31-.3,2.64-.63,1.08-.27c1.18-.29,2.33-.59,3.47-.9l.93-.25,2.49-.7,1.27-.37,2.11-.64,1.22-.38,2.6-.85,1.2-.4,2.19-.77,1.27-.47,1.63-.61,1.31-.5,1.58-.64,1.7-.7,1.84-.78,1.34-.6,1.16-.54,1.36-.64,1-.49q2.49-1.23,4.77-2.49l.67-.37c.48-.26.94-.53,1.4-.8l.59-.35c1.66-1,3.24-2,4.73-3l.05,0,1.42-1,.26-.18q3-2.15,5.53-4.32a103.23,103.23,0,0,1,31.84,50.28l.89-.56C558.48,84,538.23,35,506,17.45Z"/><path class="cls-12" d="M261.44,314.76l-.7.19c.89,1.37,1.38,2.1,1.38,2.1l.18-.11c-.12-.61-.24-1.23-.35-1.85A.4.4,0,0,0,261.44,314.76Z"/><path class="cls-4" d="M343.53,567.92s22.57,3.8,33.78,19.33-5,16.38-20.25-.94c17.74,33.15,11.9,42.8,7,41.31-7.15-2.15-15.1-20.93-15.1-20.93s8.25,19.3,2.25,26.12-16.06-21-16.06-21,4.75,18.6-.71,22.12-12.52-24.67-12.52-24.67,1.48,11.52-5.07,12.55-14.08-34.21-.2-52.5"/><path class="cls-4" d="M350,480s-47,38-10,96l-21,13s-58.51-48.28,1-123"/><path class="cls-4" d="M619.9,381.56s-17.48-14.78-19.21-33.85,12.66-11.53,16.94,11.13c1.64-37.57,11.58-42.89,15.07-39.1,5,5.5,2.31,25.71,2.31,25.71s2.75-20.81,11.38-23.62,3.11,26.27,3.11,26.27,5.4-18.42,11.88-18.67-1.8,27.61-1.8,27.61,4.59-10.67,10.76-8.21-5.33,36.61-26.6,45.26"/><path class="cls-4" d="M506.91,440.73s66.92,28,113.34-60l23.5,9.84s-21.3,86.6-116.8,84.78"/><path class="cls-13" d="M488.14,415.53H512a20.19,20.19,0,0,1,20.19,20.19v57.37a0,0,0,0,1,0,0H468a0,0,0,0,1,0,0V435.72A20.19,20.19,0,0,1,488.14,415.53Z" transform="translate(1079.88 107.53) rotate(106.86)"/><path class="cls-13" d="M310.73,435.19h64.2a0,0,0,0,1,0,0v67.7a21.79,21.79,0,0,1-21.79,21.79H332.53a21.79,21.79,0,0,1-21.79-21.79v-67.7a0,0,0,0,1,0,0Z" transform="translate(468.2 -96.39) rotate(47.81)"/><path class="cls-4" d="M379.51,556.46s31.74,48.4,18.16,132.61l-22.13,8.51s4.09-78.28-21.37-137"/><path class="cls-14" d="M372.61,687.55S356,688,352.73,700.87a4.4,4.4,0,0,0,4.47,5.48l41.41-2.07a4.39,4.39,0,0,0,4.17-4.6l-.46-9.22a4.39,4.39,0,0,0-4.6-4.17Z"/><path class="cls-4" d="M468.19,545.59S501.11,595.8,487,683.13L464.08,692s4.24-81.19-22.18-142"/><path class="cls-14" d="M492.17,678.48s17.25-.82,21.59,12.23a4.56,4.56,0,0,1-4.2,6l-43,1.09a4.54,4.54,0,0,1-4.67-4.43l-.24-9.57a4.54,4.54,0,0,1,4.43-4.67Z"/><path class="cls-15" d="M357.12,616.33l68.3,8.54-5.27,24.21a17.21,17.21,0,0,1-16.43,18l-21.13.94a17.21,17.21,0,0,1-18-16.43Z"/><path class="cls-15" d="M440.94,622.54l67.52-30.27-3,51.49a17.89,17.89,0,0,1-17.07,18.65l-19.8.88A17.86,17.86,0,0,1,450,646.23Z"/><path class="cls-15" d="M354.55,570.55l152.33-6.77,1.81,40.65a29.24,29.24,0,0,1-27.92,30.51l-37.5-10.85-24.84,1.55-31.56,13.48a29.25,29.25,0,0,1-30.51-27.92Z"/><path class="cls-6" d="M389.63,406.07h64.74a46.18,46.18,0,0,1,46.18,46.18V566.14a9.29,9.29,0,0,1-9.29,9.29H352a8.57,8.57,0,0,1-8.57-8.57V452.25a46.18,46.18,0,0,1,46.18-46.18Z" transform="translate(-57.08 55.55) rotate(-7.06)"/><rect class="cls-14" x="349.69" y="564.44" width="165.16" height="23.52" rx="7.38" transform="translate(-49.75 40.92) rotate(-5.13)"/></svg>