<svg id="Warstwa_1" data-name="Warstwa 1" xmlns="http://www.w3.org/2000/svg" xmlns:xlink="http://www.w3.org/1999/xlink" viewBox="0 0 832 766"><defs><style>.cls-1,.cls-64{fill:none;}.cls-2{opacity:0.21;}.cls-3{fill:#ff9e5c;}.cls-4{fill:#ffb37b;}.cls-5{fill:#4d4d4d;}.cls-6{clip-path:url(#clip-path);}.cls-7{fill:#f19d11;}.cls-8{fill:#f09c11;}.cls-9{fill:#ef9b11;}.cls-10{fill:#ee9a11;}.cls-11{fill:#ee9912;}.cls-12{fill:#ed9812;}.cls-13{fill:#ec9712;}.cls-14{fill:#eb9612;}.cls-15{fill:#ea9512;}.cls-16{fill:#e99412;}.cls-17{fill:#e89312;}.cls-18{fill:#e79213;}.cls-19{fill:#e79113;}.cls-20{fill:#e69013;}.cls-21{fill:#e58f13;}.cls-22{fill:#e48e13;}.cls-23{fill:#e38d13;}.cls-24{fill:#e28c14;}.cls-25{fill:#e18b14;}.cls-26{fill:#e08a14;}.cls-27{fill:#e08914;}.cls-28{fill:#df8814;}.cls-29{fill:#de8714;}.cls-30{fill:#dd8614;}.cls-31{fill:#dc8515;}.cls-32{fill:#db8415;}.cls-33{fill:#da8315;}.cls-34{fill:#da8215;}.cls-35{fill:#d98015;}.cls-36{fill:#d87f15;}.cls-37{fill:#d77e15;}.cls-38{fill:#d67d16;}.cls-39{fill:#d57c16;}.cls-40{fill:#d47b16;}.cls-41{fill:#d37a16;}.cls-42{fill:#d37916;}.cls-43{fill:#d27816;}.cls-44{fill:#d17716;}.cls-45{fill:#d07617;}.cls-46{fill:#cf7517;}.cls-47{fill:#ce7417;}.cls-48{fill:#cd7317;}.cls-49{fill:#cc7217;}.cls-50{fill:#cc7117;}.cls-51{fill:#cb7018;}.cls-52{fill:#ca6f18;}.cls-53{fill:#c96e18;}.cls-54{fill:#c86d18;}.cls-55{fill:#c76c18;}.cls-56{fill:#c66b18;}.cls-57{fill:#c56a18;}.cls-58{fill:#c56919;}.cls-59{fill:#c46819;}.cls-60{fill:#c36719;}.cls-61{fill:#c26619;}.cls-62{clip-path:url(#clip-path-2);}.cls-63{fill:#724600;}.cls-64{stroke:#000060;stroke-width:5px;}.cls-64,.cls-71,.cls-72{stroke-linecap:round;stroke-linejoin:round;}.cls-65{fill:#fff;}.cls-66{clip-path:url(#clip-path-3);}.cls-67{fill:#ff69a6;}.cls-68,.cls-71,.cls-72{fill:#e6e6e6;}.cls-69{fill:#603813;}.cls-70{fill:#0071bc;}.cls-71,.cls-72{stroke:gray;}.cls-71{stroke-width:6px;}.cls-72{stroke-width:4px;}.cls-73{fill:#003b67;}.cls-74{fill:#f6921e;}.cls-75{fill:#ffc906;}.cls-76{fill:#1b75bb;}.cls-77{fill:#25a9e0;}.cls-78{fill:#009345;}.cls-79{fill:#8bc53f;}.cls-80{fill:#8a5d3b;}.cls-81{fill:#9a8479;}.cls-82{fill:#c1b49a;}.cls-83{fill:#ee4036;}.cls-84{fill:#be1e2d;}.cls-85{fill:#e6e7e8;}.cls-86{fill:#d0d2d3;}.cls-87{fill:#f37721;}.cls-88{fill:#f89e1c;}.cls-89{fill:#fbfbfa;}</style><clipPath id="clip-path"><path id="SVGID" class="cls-1" d="M583.67,22.86s-54.17,13.37-83.83,2.2-152-44.78-183.59,44.61c-58.55,21-57.53,85.71-45.18,138.87a37,37,0,0,1,20.47-6.09h1a31.53,31.53,0,0,1,3.52.21l-.12,32.21c-.09,23,34,23.1,34,.13.09-22.66-2-48.1.13-72.06,16.6-38.86,58.92-35.51,139-35.2,1.52,0,3,0,4.49,0l1.35,0c1,0,2.09,0,3.12-.06l1.39,0,3.43-.13.79,0c1.37-.06,2.72-.14,4-.22l1.14-.08,2.85-.2,1.34-.11,2.72-.25,1.12-.1,3.57-.4,1-.12,2.59-.33,1.31-.19,2.19-.33,1.27-.2,2.71-.47,1.25-.23,2.28-.44,1.34-.28,1.71-.37,1.37-.32,1.67-.4,1.79-.45c.66-.17,1.31-.34,1.94-.52l1.42-.4,1.24-.36,1.44-.45,1.08-.34c1.77-.57,3.47-1.17,5.1-1.78l.72-.27,1.51-.6L538,117q2.68-1.11,5.13-2.29l0,0,1.56-.78.28-.14q3.3-1.69,6.13-3.5a103.81,103.81,0,0,1,24.4,54.61l1-.42C626.22,96.66,613.15,45,583.67,22.86Z"/></clipPath><clipPath id="clip-path-2"><path id="SVGID-2" data-name="SVGID" class="cls-1" d="M297.44,283.22l-.72.1c.69,1.49,1.08,2.28,1.08,2.28l.19-.08c0-.63-.06-1.26-.08-1.89A.42.42,0,0,0,297.44,283.22Z"/></clipPath><clipPath id="clip-path-3"><circle id="SVGID-3" data-name="SVGID" class="cls-1" cx="473.75" cy="321.7" r="23.5"/></clipPath></defs><title>Obszar roboczy 6</title><ellipse class="cls-2" cx="374.5" cy="714.77" rx="132.5" ry="35.36"/><rect class="cls-3" x="364.97" y="337.18" width="107.62" height="65.51" rx="29.11" transform="translate(22.95 764.32) rotate(-86.35)"/><path class="cls-4" d="M576.41,179.24a104.38,104.38,0,0,0-25.31-69c-15.44,9.77-40.69,17.66-82,17.5-80.06-.31-122.38-3.66-139,35.2-2.18,24,0,49.4-.13,72.06-.09,23-34.14,22.84-34-.13l.12-32.21a31.53,31.53,0,0,0-3.52-.21h-1c-21.22-.08-38.49,17.85-38.58,40.05v.81c-.08,22.18,17,40.23,38.24,40.31h1a36.09,36.09,0,0,0,5.24-.41.42.42,0,0,1,.47.41c1.81,54.28,44.31,97.8,96.69,98l83.45.32c53.89.21,97.76-45.33,98-101.71Z"/><path class="cls-5" d="M447.15,256.52l-45.22-.36a14.59,14.59,0,0,1-14.46-14.69l.2-25.12a14.59,14.59,0,0,1,14.69-14.46l45.22.36A14.59,14.59,0,0,1,462,216.94l-.2,25.12A14.59,14.59,0,0,1,447.15,256.52Zm-44.83-49.6a9.54,9.54,0,0,0-9.62,9.47l-.2,25.12a9.56,9.56,0,0,0,9.47,9.63l45.22.36a9.56,9.56,0,0,0,9.62-9.48l.2-25.12a9.54,9.54,0,0,0-9.47-9.62Z"/><path class="cls-5" d="M554.69,257.38,509.46,257A14.61,14.61,0,0,1,495,242.33l.2-25.13a14.59,14.59,0,0,1,14.69-14.45l45.23.36a14.58,14.58,0,0,1,14.45,14.68l-.2,25.13A14.59,14.59,0,0,1,554.69,257.38Zm-44.84-49.61a9.56,9.56,0,0,0-9.62,9.47l-.2,25.13A9.56,9.56,0,0,0,509.5,252l45.23.36a9.56,9.56,0,0,0,9.62-9.47l.2-25.13a9.56,9.56,0,0,0-9.47-9.62Z"/><g class="cls-6"><polygon class="cls-7" points="626.55 54.84 585.36 -17.83 627.13 -17.5 626.55 54.84"/><polygon class="cls-7" points="626.44 68.53 577.45 -17.9 585.36 -17.83 626.55 54.84 626.44 68.53"/><polygon class="cls-8" points="626.33 82.23 569.55 -17.96 577.45 -17.9 626.44 68.53 626.33 82.23"/><polygon class="cls-9" points="626.22 95.92 561.64 -18.02 569.55 -17.96 626.33 82.23 626.22 95.92"/><polygon class="cls-10" points="626.11 109.61 553.74 -18.09 561.64 -18.02 626.22 95.92 626.11 109.61"/><polygon class="cls-11" points="626 123.3 545.83 -18.15 553.74 -18.09 626.11 109.61 626 123.3"/><polygon class="cls-12" points="625.9 136.99 537.93 -18.21 545.83 -18.15 626 123.3 625.9 136.99"/><polygon class="cls-13" points="625.88 138.74 620.69 141.68 530.02 -18.27 537.93 -18.21 625.9 136.99 625.88 138.74"/><polygon class="cls-14" points="620.69 141.68 614.73 145.06 522.12 -18.34 530.02 -18.27 620.69 141.68"/><polygon class="cls-15" points="614.73 145.06 608.77 148.44 514.22 -18.4 522.12 -18.34 614.73 145.06"/><polygon class="cls-16" points="608.77 148.44 602.82 151.81 506.31 -18.46 514.22 -18.4 608.77 148.44"/><polygon class="cls-17" points="602.82 151.81 596.86 155.19 498.4 -18.53 506.31 -18.46 602.82 151.81"/><polygon class="cls-18" points="596.86 155.19 590.91 158.56 490.5 -18.59 498.4 -18.53 596.86 155.19"/><polygon class="cls-19" points="590.91 158.56 584.95 161.94 482.6 -18.65 490.5 -18.59 590.91 158.56"/><polygon class="cls-20" points="584.95 161.94 579 165.31 474.69 -18.71 482.6 -18.65 584.95 161.94"/><polygon class="cls-21" points="579 165.31 573.04 168.69 466.79 -18.78 474.69 -18.71 579 165.31"/><polygon class="cls-22" points="573.04 168.69 567.09 172.06 458.88 -18.84 466.79 -18.78 573.04 168.69"/><polygon class="cls-23" points="567.09 172.06 561.13 175.44 450.98 -18.9 458.88 -18.84 567.09 172.06"/><polygon class="cls-24" points="561.13 175.44 555.17 178.82 443.07 -18.97 450.98 -18.9 561.13 175.44"/><polygon class="cls-25" points="555.17 178.82 549.22 182.19 435.17 -19.03 443.07 -18.97 555.17 178.82"/><polygon class="cls-26" points="549.22 182.19 543.26 185.57 427.26 -19.09 435.17 -19.03 549.22 182.19"/><polygon class="cls-27" points="543.26 185.57 537.31 188.94 419.36 -19.15 427.26 -19.09 543.26 185.57"/><polygon class="cls-28" points="537.31 188.94 531.35 192.32 411.45 -19.22 419.36 -19.15 537.31 188.94"/><polygon class="cls-29" points="531.35 192.32 525.39 195.69 403.55 -19.28 411.45 -19.22 531.35 192.32"/><polygon class="cls-30" points="525.39 195.69 519.44 199.07 395.64 -19.34 403.55 -19.28 525.39 195.69"/><polygon class="cls-31" points="519.44 199.07 513.48 202.45 387.74 -19.41 395.64 -19.34 519.44 199.07"/><polygon class="cls-32" points="513.48 202.45 507.53 205.82 379.83 -19.47 387.74 -19.41 513.48 202.45"/><polygon class="cls-33" points="507.53 205.82 501.57 209.2 371.93 -19.53 379.83 -19.47 507.53 205.82"/><polygon class="cls-34" points="501.57 209.2 495.62 212.57 364.03 -19.59 371.93 -19.53 501.57 209.2"/><polygon class="cls-35" points="495.62 212.57 489.66 215.95 356.12 -19.66 364.03 -19.59 495.62 212.57"/><polygon class="cls-36" points="489.66 215.95 483.7 219.32 348.22 -19.72 356.12 -19.66 489.66 215.95"/><polygon class="cls-37" points="483.7 219.32 477.75 222.7 341.17 -18.27 343.79 -19.76 348.22 -19.72 483.7 219.32"/><rect class="cls-38" x="403.06" y="-34.59" width="6.85" height="276.99" transform="translate(1.62 213.94) rotate(-29.54)"/><rect class="cls-39" x="397.1" y="-31.22" width="6.85" height="276.99" transform="translate(-0.82 211.45) rotate(-29.54)"/><rect class="cls-40" x="391.15" y="-27.84" width="6.85" height="276.99" transform="translate(-3.26 208.95) rotate(-29.54)"/><rect class="cls-41" x="385.19" y="-24.46" width="6.85" height="276.99" transform="translate(-5.7 206.45) rotate(-29.54)"/><rect class="cls-42" x="379.23" y="-21.09" width="6.85" height="276.99" transform="translate(-8.14 203.95) rotate(-29.54)"/><rect class="cls-43" x="373.28" y="-17.71" width="6.85" height="276.99" transform="translate(-10.58 201.45) rotate(-29.54)"/><rect class="cls-44" x="367.32" y="-14.34" width="6.85" height="276.99" transform="translate(-13.01 198.96) rotate(-29.54)"/><rect class="cls-45" x="361.37" y="-10.96" width="6.85" height="276.99" transform="translate(-15.45 196.46) rotate(-29.54)"/><rect class="cls-46" x="355.41" y="-7.59" width="6.85" height="276.99" transform="translate(-17.89 193.96) rotate(-29.54)"/><rect class="cls-47" x="349.46" y="-4.21" width="6.85" height="276.99" transform="translate(-20.33 191.46) rotate(-29.54)"/><polygon class="cls-48" points="418.19 256.46 414.06 258.8 411.64 258.78 275.65 18.86 281.61 15.48 418.19 256.46"/><polygon class="cls-49" points="403.73 258.71 269.7 22.24 275.65 18.86 411.64 258.78 403.73 258.71"/><polygon class="cls-50" points="395.83 258.65 263.74 25.61 269.7 22.24 403.73 258.71 395.83 258.65"/><polygon class="cls-51" points="387.92 258.59 258.19 29.69 258.19 28.76 263.74 25.61 395.83 258.65 387.92 258.59"/><polygon class="cls-52" points="380.02 258.52 258.08 43.38 258.19 29.69 387.92 258.59 380.02 258.52"/><polygon class="cls-53" points="372.11 258.46 257.97 57.07 258.08 43.38 380.02 258.52 372.11 258.46"/><polygon class="cls-54" points="364.21 258.4 257.86 70.76 257.97 57.07 372.11 258.46 364.21 258.4"/><polygon class="cls-55" points="356.3 258.34 257.75 84.45 257.86 70.76 364.21 258.4 356.3 258.34"/><polygon class="cls-56" points="348.4 258.27 257.64 98.14 257.75 84.45 356.3 258.34 348.4 258.27"/><polygon class="cls-57" points="340.5 258.21 257.53 111.84 257.64 98.14 348.4 258.27 340.5 258.21"/><polygon class="cls-58" points="332.59 258.15 257.42 125.53 257.53 111.84 340.5 258.21 332.59 258.15"/><polygon class="cls-59" points="324.69 258.08 257.31 139.22 257.42 125.53 332.59 258.15 324.69 258.08"/><polygon class="cls-60" points="316.78 258.02 257.2 152.91 257.31 139.22 324.69 258.08 316.78 258.02"/><polygon class="cls-61" points="308.88 257.96 257.1 166.6 257.2 152.91 316.78 258.02 308.88 257.96"/><polygon class="cls-61" points="257.1 166.6 308.88 257.96 256.37 257.54 257.1 166.6"/></g><g class="cls-62"><rect class="cls-7" x="296.15" y="283.75" width="2.41" height="1.29" transform="translate(10.61 579.48) rotate(-89.54)"/></g><path class="cls-63" d="M379.52,192.8a5,5,0,0,1-1.06-9.93l53-11.91a5,5,0,0,1,2.2,9.81l-52.95,11.91A5.59,5.59,0,0,1,379.52,192.8Z"/><path class="cls-63" d="M555.85,183.64l-54,5.42a5,5,0,1,1-1-10l54-5.42a5,5,0,1,1,1,10Z"/><path class="cls-64" d="M441.63,224.4s-19.13,20.88-36-.22"/><path class="cls-64" d="M547.86,226s-20,20.11-36-1.65"/><circle class="cls-65" cx="473.75" cy="321.7" r="23.5"/><g class="cls-66"><ellipse class="cls-67" cx="454.25" cy="337" rx="21.11" ry="32.16" transform="matrix(0.08, -1, 1, 0.08, 80.07, 761.14)"/></g><path class="cls-4" d="M187.7,471.76l-37.58,5.05s-21-1.14-25.31,6.84,25.24,7.89,25.24,7.89-19.1,1.91-20.53,8.24S157,503.09,157,503.09s-11.34,2.55-10.06,9.06,37,1.51,49.39-17.8l1.81-12A9.3,9.3,0,0,0,187.7,471.76Z"/><path class="cls-4" d="M316.94,438.13S288.74,505,194,474.63l-9.89,23.49S260,545,326.86,476.87"/><path class="cls-68" d="M293.45,409.38h64.2a0,0,0,0,1,0,0v79.4A23.66,23.66,0,0,1,334,512.43H317.11a23.66,23.66,0,0,1-23.66-23.66v-79.4a0,0,0,0,1,0,0Z" transform="translate(561.38 -51.74) rotate(59.94)"/><path class="cls-4" d="M323.21,544.35s.29,60.45-87.21,79.22l.13,21.24s77.9,1.36,108.59-76.7"/><path class="cls-69" d="M240.47,644.78s-5.45,15.74-18.69,15a4.4,4.4,0,0,1-3.88-5.91l14.42-38.88a4.39,4.39,0,0,1,5.64-2.59l8.65,3.21a4.38,4.38,0,0,1,2.59,5.64Z"/><path class="cls-4" d="M623.7,389.44l37.91.74s20.7-3.51,25.92,3.91-24.18,10.72-24.18,10.72,19.19-.28,21.34,5.85-26.92,6.41-26.92,6.41,11.55,1.25,11,7.86-36.56,5.71-51.09-12.06l-3.17-11.69A9.31,9.31,0,0,1,623.7,389.44Z"/><path class="cls-4" d="M494.71,437.94s61.12,39,122-39.67L638.12,412s-35.84,81.65-129.62,63.46"/><path class="cls-68" d="M482.67,422.47H506.5a20.19,20.19,0,0,1,20.19,20.19V500a0,0,0,0,1,0,0h-64.2a0,0,0,0,1,0,0V442.66A20.19,20.19,0,0,1,482.67,422.47Z" transform="translate(1015.62 30.1) rotate(97.39)"/><path class="cls-4" d="M418.88,566.17S431,625,385.82,701l-24.59-.23s33.8-73.94,31.62-140.24"/><path class="cls-69" d="M387.54,695.5s17.28-.08,21,13.14a4.56,4.56,0,0,1-4.45,5.83l-43-.74a4.56,4.56,0,0,1-4.48-4.63l.17-9.58a4.55,4.55,0,0,1,4.63-4.47Z"/><path class="cls-70" d="M309.21,553.36,353,602l-26.56,20.27a17.22,17.22,0,0,1-24.34-.41l-14.7-15.21a17.19,17.19,0,0,1,.41-24.33Z"/><path class="cls-70" d="M367,604l65-10.79-6.1,51.21A17.88,17.88,0,0,1,407.71,662l-19.82-.33a17.88,17.88,0,0,1-17.58-18.17Z"/><path class="cls-70" d="M317.21,521.07l136.47,68L435.53,625.5a29.24,29.24,0,0,1-39.21,13.13l-27.53-27.69-22.47-10.7-34.13-3.53a29.24,29.24,0,0,1-13.13-39.22Z"/><path class="cls-65" d="M369.2,402h64.74a46.18,46.18,0,0,1,46.18,46.18V562.07a9.29,9.29,0,0,1-9.29,9.29H331.59a8.57,8.57,0,0,1-8.57-8.57V448.18A46.18,46.18,0,0,1,369.2,402Z" transform="matrix(0.97, 0.23, -0.23, 0.97, 120.5, -78.22)"/><rect class="cls-69" x="372.65" y="481.36" width="23.52" height="165.16" rx="7.38" transform="translate(-267.84 764.87) rotate(-72.84)"/><rect class="cls-71" x="23" y="471.8" width="184.3" height="5.2" rx="2.52"/><polygon class="cls-72" points="216.48 471.8 88.91 471.8 133.43 386 261 386 216.48 471.8"/><path class="cls-73" d="M147.8,423.28c-2.47,6.88-1.74,17.77,4.82,24.58,6.39,6.58,15.79,11.81,30.69,3.94s20.24-22.61,18.91-31.83a12.92,12.92,0,0,0-9.82-10.87c-6.51-1-10.42,3.42-12.63,6.48-.81,1.12-2.56,3.35-3,3.9a5.19,5.19,0,0,1-5.46,2.39c-2.87-.7-4.61-4-3.88-7.42a9.17,9.17,0,0,0,0-3.44c-1.36-5.32-6.62-3.73-9.4-2.13C154.83,410.7,150.28,416.39,147.8,423.28Z"/><path class="cls-65" d="M183.89,425.24c-2.1-1.35-2.44-4.76-.77-7.62s4.72-4.1,6.81-2.76,2.44,4.76.77,7.63S186,426.59,183.89,425.24Z"/><ellipse class="cls-74" cx="194.27" cy="430.83" rx="3.58" ry="3.82"/><path class="cls-75" d="M197.39,432.69a3.46,3.46,0,0,1-4.87,1.47l3.5-6.66A4,4,0,0,1,197.39,432.69Z"/><ellipse class="cls-76" cx="181.94" cy="445.18" rx="3.58" ry="3.82"/><path class="cls-77" d="M185.07,447a3.47,3.47,0,0,1-4.88,1.47l3.5-6.66A3.94,3.94,0,0,1,185.07,447Z"/><ellipse class="cls-78" cx="164.65" cy="448.44" rx="3.58" ry="3.82"/><path class="cls-79" d="M167.77,450.3a3.46,3.46,0,0,1-4.87,1.47l3.49-6.66A3.94,3.94,0,0,1,167.77,450.3Z"/><ellipse class="cls-69" cx="152.68" cy="435.48" rx="3.58" ry="3.82"/><path class="cls-80" d="M155.81,437.34a3.47,3.47,0,0,1-4.88,1.47l3.5-6.66A3.94,3.94,0,0,1,155.81,437.34Z"/><ellipse class="cls-81" cx="158.1" cy="419.17" rx="3.58" ry="3.82"/><path class="cls-82" d="M161.22,421a3.46,3.46,0,0,1-4.87,1.47l3.5-6.66A4,4,0,0,1,161.22,421Z"/><path class="cls-83" d="M194.48,402.72c-.36.47-2.39,3.69-2.39,3.69l1,.6,2.6-5C195.34,401.84,194.79,402.13,194.48,402.72Z"/><path class="cls-84" d="M195.82,403.51c.31-.58.26-1.23-.11-1.46l-2.6,5,1,.61S195.64,404.09,195.82,403.51Z"/><path class="cls-84" d="M176,442.23s3.93-6,9.12-15.85,9-18.58,9-18.58l-1-.61-18.07,34.43Z"/><path class="cls-83" d="M181.82,424.44c-5.19,9.9-7.9,16.57-7.9,16.57l1,.61L193,407.19l-1-.6S187,414.54,181.82,424.44Z"/><polygon class="cls-84" points="173.25 446.54 175.83 442.48 174.8 441.87 172.56 446.14 173.25 446.54"/><polygon class="cls-83" points="171.88 445.73 172.56 446.14 174.8 441.87 173.78 441.26 171.88 445.73"/><path class="cls-85" d="M173,448.28a1.49,1.49,0,0,0-.52-2l-4,7.56C169.15,454.27,172.63,449,173,448.28Z"/><path class="cls-86" d="M170.63,446.87c-.37.7-2.78,6.62-2.13,7l4-7.56A1.31,1.31,0,0,0,170.63,446.87Z"/><path class="cls-87" d="M196.41,412c-.45.22-3.18,1.95-3.18,1.95l.59.88,3.79-2.87C197.39,411.63,196.85,411.64,196.41,412Z"/><path class="cls-88" d="M197.18,413.13a1,1,0,0,0,.43-1.19l-3.79,2.87.58.88S196.83,413.51,197.18,413.13Z"/><path class="cls-88" d="M168,435.72s5.18-3.13,12.73-8.86,13.56-11.06,13.56-11.06l-.59-.88-26.29,19.92Z"/><path class="cls-87" d="M178.83,424.05c-7.55,5.72-12,9.9-12,9.9l.58.89,26.29-19.92-.59-.88S186.39,418.32,178.83,424.05Z"/><polygon class="cls-88" points="164.34 438.04 167.8 435.87 167.2 434.98 163.95 437.45 164.34 438.04"/><polygon class="cls-87" points="163.55 436.86 163.95 437.45 167.2 434.98 166.61 434.09 163.55 436.86"/><path class="cls-85" d="M163.53,439.31a1.32,1.32,0,0,0,.28-1.76L158,441.93C158.41,442.49,163,439.71,163.53,439.31Z"/><path class="cls-86" d="M162.16,437.26c-.53.4-4.5,4.1-4.13,4.67l5.78-4.38A1.14,1.14,0,0,0,162.16,437.26Z"/><rect class="cls-71" x="586" y="386.8" width="184.3" height="5.2" rx="2.52"/><polygon class="cls-72" points="779.48 386.8 651.91 386.8 696.43 301 824 301 779.48 386.8"/><circle class="cls-5" cx="736" cy="346" r="27"/><path class="cls-89" d="M742.64,332.78c-.07.25-.13.53-.23.8q-5,13-9.92,25.94c-.4,1-1.17,1.48-2,1.22a1.57,1.57,0,0,1-.92-2.21q2-5.13,3.91-10.25,3-7.89,6-15.79a1.63,1.63,0,0,1,1.63-1.27,1.47,1.47,0,0,1,1.39,1C742.57,332.41,742.59,332.58,742.64,332.78Z"/><path class="cls-89" d="M718.64,346l7.24,4.47a6.38,6.38,0,0,1,.82.53,1.46,1.46,0,0,1,.4,2,1.42,1.42,0,0,1-2,.58c-2.81-1.68-5.63-3.34-8.35-5.15a3.12,3.12,0,0,1,.13-5c2.66-1.72,5.38-3.36,8.09-5a1.54,1.54,0,1,1,1.56,2.65c-2.22,1.39-4.46,2.75-6.7,4.13Z"/><path class="cls-89" d="M753.37,346l-7.25-4.47a8.57,8.57,0,0,1-.81-.52,1.47,1.47,0,0,1-.36-2.07,1.39,1.39,0,0,1,1.95-.53c2.8,1.69,5.62,3.35,8.35,5.16a3.12,3.12,0,0,1-.1,5c-2.66,1.73-5.39,3.36-8.1,5a1.54,1.54,0,1,1-1.58-2.64c2.19-1.38,4.4-2.73,6.61-4.09Z"/></svg>