<svg id="Warstwa_1" data-name="Warstwa 1" xmlns="http://www.w3.org/2000/svg" xmlns:xlink="http://www.w3.org/1999/xlink" viewBox="0 0 832 766"><defs><style>.cls-1{fill:none;}.cls-2{opacity:0.21;}.cls-3{fill:#ff9e5c;}.cls-4{fill:#ffb37b;}.cls-5{fill:#000060;}.cls-6{fill:#fff;}.cls-7{clip-path:url(#clip-path);}.cls-8{fill:#ff69a6;}.cls-9{fill:#4d4d4d;}.cls-10{clip-path:url(#clip-path-2);}.cls-11{fill:#f19d11;}.cls-12{fill:#f09c11;}.cls-13{fill:#ef9b11;}.cls-14{fill:#ee9a11;}.cls-15{fill:#ee9912;}.cls-16{fill:#ed9812;}.cls-17{fill:#ec9712;}.cls-18{fill:#eb9612;}.cls-19{fill:#ea9512;}.cls-20{fill:#e99412;}.cls-21{fill:#e89312;}.cls-22{fill:#e79213;}.cls-23{fill:#e79113;}.cls-24{fill:#e69013;}.cls-25{fill:#e58f13;}.cls-26{fill:#e48e13;}.cls-27{fill:#e38d13;}.cls-28{fill:#e28c14;}.cls-29{fill:#e18b14;}.cls-30{fill:#e08a14;}.cls-31{fill:#e08914;}.cls-32{fill:#df8814;}.cls-33{fill:#de8714;}.cls-34{fill:#dd8614;}.cls-35{fill:#dc8515;}.cls-36{fill:#db8415;}.cls-37{fill:#da8315;}.cls-38{fill:#da8215;}.cls-39{fill:#d98015;}.cls-40{fill:#d87f15;}.cls-41{fill:#d77e15;}.cls-42{fill:#d67d16;}.cls-43{fill:#d57c16;}.cls-44{fill:#d47b16;}.cls-45{fill:#d37a16;}.cls-46{fill:#d37916;}.cls-47{fill:#d27816;}.cls-48{fill:#d17716;}.cls-49{fill:#d07617;}.cls-50{fill:#cf7517;}.cls-51{fill:#ce7417;}.cls-52{fill:#cd7317;}.cls-53{fill:#cc7217;}.cls-54{fill:#cc7117;}.cls-55{fill:#cb7018;}.cls-56{fill:#ca6f18;}.cls-57{fill:#c96e18;}.cls-58{fill:#c86d18;}.cls-59{fill:#c76c18;}.cls-60{fill:#c66b18;}.cls-61{fill:#c56a18;}.cls-62{fill:#c56919;}.cls-63{fill:#c46819;}.cls-64{fill:#c36719;}.cls-65{fill:#c26619;}.cls-66{clip-path:url(#clip-path-3);}.cls-67{fill:#724600;}.cls-68{fill:#e6e6e6;}.cls-69{fill:#603813;}.cls-70{fill:#0071bc;}</style><clipPath id="clip-path"><path id="SVGID" class="cls-1" d="M381.94,304.58a48.82,48.82,0,1,0,96.59-14.28Z"/></clipPath><clipPath id="clip-path-2"><path id="SVGID-2" data-name="SVGID" class="cls-1" d="M505.34,14.56S453.78,35.9,422.79,29.31,265.75,7.84,248,101c-54.73,29.51-44,93.37-23.83,144.08a37,37,0,0,1,19.33-9.1l1-.14a35.16,35.16,0,0,1,3.51-.31l4.71,31.86c3.36,22.73,37.05,17.75,33.69-5-3.32-22.42-9.24-47.25-10.68-71.26,10.58-40.91,52.92-44,132.12-55.66q2.25-.33,4.44-.69l1.33-.22,3.07-.53,1.37-.25,3.38-.64.77-.15c1.35-.27,2.66-.54,4-.82l1.12-.25,2.78-.63,1.31-.31,2.66-.65L435,130l3.48-.93.93-.26,2.5-.72,1.28-.38,2.12-.66,1.22-.39c.88-.28,1.75-.57,2.6-.86l1.21-.42,2.19-.78,1.28-.48,1.63-.62,1.31-.52c.54-.21,1.07-.43,1.59-.65s1.15-.47,1.7-.71l1.85-.81,1.34-.61,1.16-.54,1.37-.66,1-.5c1.66-.83,3.26-1.67,4.78-2.53l.67-.37c.47-.27.94-.54,1.4-.82l.59-.35c1.67-1,3.24-2,4.73-3l0,0,1.43-1,.25-.18c2-1.45,3.85-2.91,5.54-4.37a103.72,103.72,0,0,1,32.31,50.32l.9-.56C558.47,81.14,537.81,32,505.34,14.56Z"/></clipPath><clipPath id="clip-path-3"><path id="SVGID-3" data-name="SVGID" class="cls-1" d="M261.41,314.92l-.7.2c.91,1.37,1.41,2.1,1.41,2.1l.18-.12c-.13-.61-.25-1.23-.37-1.85A.41.41,0,0,0,261.41,314.92Z"/></clipPath></defs><title>Obszar roboczy 6 kopia</title><ellipse class="cls-2" cx="431.5" cy="696.77" rx="132.5" ry="35.36"/><rect class="cls-3" x="376.02" y="316.12" width="65.51" height="107.62" rx="29.11" transform="translate(-40.22 50.01) rotate(-6.67)"/><path class="cls-4" d="M521.62,170.26a104.35,104.35,0,0,0-35.37-64.41c-13.8,12-37.58,23.56-78.48,29.6-79.2,11.71-121.54,14.75-132.12,55.66,1.44,24,7.36,48.84,10.68,71.26,3.36,22.73-30.33,27.71-33.69,5l-4.71-31.86a35.16,35.16,0,0,0-3.51.31l-1,.14c-21,3.11-35.38,23.43-32.13,45.39l.12.8c3.24,21.94,22.88,37.22,43.85,34.12l1-.15a35.64,35.64,0,0,0,5.12-1.18.41.41,0,0,1,.52.33c9.93,53.4,58.49,90.05,110.3,82.39l82.55-12.21c53.32-7.88,89.86-59.48,81.61-115.26Z"/><path class="cls-5" d="M378.66,242.06c1,7-2.24,13.3-7.31,14.05s-10-4.32-11.08-11.34,2.24-13.31,7.32-14.06S377.62,235,378.66,242.06Z"/><path class="cls-5" d="M482,226.78c1,7-2.24,13.31-7.32,14.06s-10-4.33-11.07-11.34,2.24-13.31,7.32-14.06S481,219.76,482,226.78Z"/><path class="cls-6" d="M381.94,304.58a48.82,48.82,0,1,0,96.59-14.28Z"/><g class="cls-7"><ellipse class="cls-8" cx="416.51" cy="344.56" rx="32.16" ry="21.11" transform="translate(-21.81 28.22) rotate(-3.78)"/></g><path class="cls-9" d="M405.42,266.05l-44.77,6.43a14.58,14.58,0,0,1-16.49-12.35l-3.58-24.87a14.6,14.6,0,0,1,12.36-16.5l44.76-6.43a14.59,14.59,0,0,1,16.5,12.36l3.57,24.87A14.58,14.58,0,0,1,405.42,266.05Zm-51.77-42.31a9.55,9.55,0,0,0-8.09,10.81l3.57,24.87a9.56,9.56,0,0,0,10.81,8.09l44.77-6.43a9.56,9.56,0,0,0,8.09-10.81l-3.57-24.87a9.56,9.56,0,0,0-10.81-8.09Z"/><path class="cls-9" d="M511.87,250.77,467.1,257.2a14.6,14.6,0,0,1-16.5-12.36L447,220a14.59,14.59,0,0,1,12.35-16.49l44.77-6.43a14.59,14.59,0,0,1,16.5,12.35l3.57,24.87A14.6,14.6,0,0,1,511.87,250.77ZM460.1,208.45a9.57,9.57,0,0,0-8.1,10.81l3.58,24.87a9.54,9.54,0,0,0,10.8,8.09l44.77-6.43A9.56,9.56,0,0,0,519.24,235l-3.57-24.87A9.55,9.55,0,0,0,504.86,202Z"/><g class="cls-10"><polygon class="cls-11" points="552.53 39.74 500.9 -25.93 542.24 -31.87 552.53 39.74"/><polygon class="cls-11" points="554.48 53.3 493.07 -24.81 500.9 -25.93 552.53 39.74 554.48 53.3"/><polygon class="cls-12" points="556.42 66.85 485.25 -23.68 493.07 -24.81 554.48 53.3 556.42 66.85"/><polygon class="cls-13" points="558.37 80.4 477.43 -22.56 485.25 -23.68 556.42 66.85 558.37 80.4"/><polygon class="cls-14" points="560.32 93.95 469.6 -21.43 477.43 -22.56 558.37 80.4 560.32 93.95"/><polygon class="cls-15" points="562.26 107.51 461.77 -20.31 469.6 -21.43 560.32 93.95 562.26 107.51"/><polygon class="cls-16" points="564.21 121.06 453.95 -19.19 461.77 -20.31 562.26 107.51 564.21 121.06"/><polygon class="cls-17" points="564.46 122.79 559.76 126.48 446.13 -18.06 453.95 -19.19 564.21 121.06 564.46 122.79"/><polygon class="cls-18" points="559.76 126.48 554.38 130.71 438.3 -16.94 446.13 -18.06 559.76 126.48"/><polygon class="cls-19" points="554.38 130.71 549 134.94 430.48 -15.82 438.3 -16.94 554.38 130.71"/><polygon class="cls-20" points="549 134.94 543.62 139.17 422.65 -14.69 430.48 -15.82 549 134.94"/><polygon class="cls-21" points="543.62 139.17 538.23 143.41 414.83 -13.57 422.65 -14.69 543.62 139.17"/><polygon class="cls-22" points="538.23 143.41 532.85 147.64 407 -12.44 414.83 -13.57 538.23 143.41"/><polygon class="cls-23" points="532.85 147.64 527.47 151.87 399.18 -11.32 407 -12.44 532.85 147.64"/><polygon class="cls-24" points="527.47 151.87 522.09 156.1 391.35 -10.2 399.18 -11.32 527.47 151.87"/><polygon class="cls-25" points="522.09 156.1 516.71 160.33 383.53 -9.07 391.35 -10.2 522.09 156.1"/><polygon class="cls-26" points="516.71 160.33 511.32 164.56 375.7 -7.95 383.53 -9.07 516.71 160.33"/><polygon class="cls-27" points="511.32 164.56 505.94 168.79 367.88 -6.83 375.7 -7.95 511.32 164.56"/><polygon class="cls-28" points="505.94 168.79 500.56 173.02 360.06 -5.7 367.88 -6.83 505.94 168.79"/><polygon class="cls-29" points="500.56 173.02 495.18 177.25 352.23 -4.58 360.06 -5.7 500.56 173.02"/><polygon class="cls-30" points="495.18 177.25 489.8 181.49 344.41 -3.45 352.23 -4.58 495.18 177.25"/><polygon class="cls-31" points="489.8 181.49 484.42 185.72 336.58 -2.33 344.41 -3.45 489.8 181.49"/><polygon class="cls-32" points="484.42 185.72 479.03 189.95 328.76 -1.21 336.58 -2.33 484.42 185.72"/><polygon class="cls-33" points="479.03 189.95 473.65 194.18 320.93 -0.08 328.76 -1.21 479.03 189.95"/><polygon class="cls-34" points="473.65 194.18 468.27 198.41 313.11 1.04 320.93 -0.08 473.65 194.18"/><polygon class="cls-35" points="468.27 198.41 462.89 202.64 305.28 2.17 313.11 1.04 468.27 198.41"/><polygon class="cls-36" points="462.89 202.64 457.51 206.87 297.46 3.29 305.28 2.17 462.89 202.64"/><polygon class="cls-37" points="457.51 206.87 452.13 211.1 289.63 4.41 297.46 3.29 457.51 206.87"/><polygon class="cls-38" points="452.13 211.1 446.74 215.33 281.81 5.54 289.63 4.41 452.13 211.1"/><polygon class="cls-39" points="446.74 215.33 441.36 219.56 273.98 6.66 281.81 5.54 446.74 215.33"/><polygon class="cls-40" points="441.36 219.56 435.98 223.79 266.16 7.78 273.98 6.66 441.36 219.56"/><polygon class="cls-41" points="435.98 223.79 430.6 228.03 259.41 10.27 261.77 8.41 266.16 7.78 435.98 223.79"/><rect class="cls-42" x="338.89" y="-17.23" width="6.85" height="276.99" transform="translate(-1.74 237.5) rotate(-38.17)"/><rect class="cls-43" x="333.51" y="-13" width="6.85" height="276.99" transform="translate(-5.51 235.07) rotate(-38.17)"/><rect class="cls-44" x="328.13" y="-8.77" width="6.85" height="276.99" transform="translate(-9.27 232.65) rotate(-38.17)"/><rect class="cls-45" x="322.74" y="-4.54" width="6.85" height="276.99" transform="translate(-13.04 230.23) rotate(-38.17)"/><rect class="cls-46" x="317.36" y="-0.3" width="6.85" height="276.99" transform="translate(-16.81 227.81) rotate(-38.17)"/><rect class="cls-47" x="311.98" y="3.93" width="6.85" height="276.99" transform="matrix(0.79, -0.62, 0.62, 0.79, -20.57, 225.39)"/><rect class="cls-48" x="306.6" y="8.16" width="6.85" height="276.99" transform="translate(-24.34 222.97) rotate(-38.17)"/><rect class="cls-49" x="301.22" y="12.39" width="6.85" height="276.99" transform="translate(-28.1 220.55) rotate(-38.17)"/><rect class="cls-50" x="295.83" y="16.62" width="6.85" height="276.99" transform="translate(-31.87 218.12) rotate(-38.17)"/><rect class="cls-51" x="290.45" y="20.85" width="6.85" height="276.99" transform="translate(-35.64 215.7) rotate(-38.17)"/><polygon class="cls-52" points="376.78 270.34 373.05 273.27 370.65 273.61 200.21 56.81 205.59 52.58 376.78 270.34"/><polygon class="cls-53" points="362.82 274.74 194.83 61.05 200.21 56.81 370.65 273.61 362.82 274.74"/><polygon class="cls-54" points="355 275.86 189.44 65.28 194.83 61.05 362.82 274.74 355 275.86"/><polygon class="cls-55" points="347.17 276.98 184.56 70.14 184.43 69.22 189.44 65.28 355 275.86 347.17 276.98"/><polygon class="cls-56" points="339.35 278.11 186.51 83.69 184.56 70.14 347.17 276.98 339.35 278.11"/><polygon class="cls-57" points="331.52 279.23 188.45 97.25 186.51 83.69 339.35 278.11 331.52 279.23"/><polygon class="cls-58" points="323.7 280.36 190.4 110.8 188.45 97.25 331.52 279.23 323.7 280.36"/><polygon class="cls-59" points="315.87 281.48 192.35 124.35 190.4 110.8 323.7 280.36 315.87 281.48"/><polygon class="cls-60" points="308.05 282.6 194.29 137.91 192.35 124.35 315.87 281.48 308.05 282.6"/><polygon class="cls-61" points="300.23 283.73 196.24 151.46 194.29 137.91 308.05 282.6 300.23 283.73"/><polygon class="cls-62" points="292.4 284.85 198.19 165.01 196.24 151.46 300.23 283.73 292.4 284.85"/><polygon class="cls-63" points="284.57 285.98 200.13 178.56 198.19 165.01 292.4 284.85 284.57 285.98"/><polygon class="cls-64" points="276.75 287.1 202.08 192.12 200.13 178.56 284.57 285.98 276.75 287.1"/><polygon class="cls-65" points="268.93 288.22 204.03 205.67 202.08 192.12 276.75 287.1 268.93 288.22"/><polygon class="cls-65" points="204.03 205.67 268.93 288.22 216.95 295.69 204.03 205.67"/></g><g class="cls-66"><rect class="cls-11" x="260.86" y="314.88" width="1.29" height="2.41" transform="matrix(0.99, -0.14, 0.14, 0.99, -42.28, 40.39)"/></g><path class="cls-67" d="M329,213.21a5,5,0,0,1-2.53-9.66L377,183.82a5,5,0,0,1,3.65,9.36l-50.56,19.73A5,5,0,0,1,329,213.21Z"/><path class="cls-67" d="M484.6,184.62l-53.72,7.72a5,5,0,1,1-1.43-10l53.72-7.71a5,5,0,1,1,1.43,9.94Z"/><path class="cls-4" d="M343.53,567.92s22.57,3.8,33.78,19.33-5,16.38-20.25-.94c17.74,33.15,11.9,42.8,7,41.31-7.15-2.15-15.1-20.93-15.1-20.93s8.25,19.3,2.25,26.12-16.06-21-16.06-21,4.75,18.6-.71,22.12-12.52-24.67-12.52-24.67,1.48,11.52-5.07,12.55-14.08-34.21-.2-52.5"/><path class="cls-4" d="M350,480s-47,38-10,96l-21,13s-58.51-48.28,1-123"/><path class="cls-4" d="M619.9,381.56s-17.48-14.78-19.21-33.85,12.66-11.53,16.94,11.13c1.64-37.57,11.58-42.89,15.07-39.1,5,5.5,2.31,25.71,2.31,25.71s2.75-20.81,11.38-23.62,3.11,26.27,3.11,26.27,5.4-18.42,11.88-18.67-1.8,27.61-1.8,27.61,4.59-10.67,10.76-8.21-5.33,36.61-26.6,45.26"/><path class="cls-4" d="M506.91,440.73s66.92,28,113.34-60l23.5,9.84s-21.3,86.6-116.8,84.78"/><path class="cls-68" d="M488.14,415.53H512a20.19,20.19,0,0,1,20.19,20.19v57.37a0,0,0,0,1,0,0H468a0,0,0,0,1,0,0V435.72A20.19,20.19,0,0,1,488.14,415.53Z" transform="translate(1079.88 107.53) rotate(106.86)"/><path class="cls-68" d="M310.73,435.19h64.2a0,0,0,0,1,0,0v67.7a21.79,21.79,0,0,1-21.79,21.79H332.53a21.79,21.79,0,0,1-21.79-21.79v-67.7A0,0,0,0,1,310.73,435.19Z" transform="translate(468.2 -96.39) rotate(47.81)"/><path class="cls-4" d="M379.51,556.46s31.74,48.4,18.16,132.61l-22.13,8.51s4.09-78.28-21.37-137"/><path class="cls-69" d="M372.61,687.55S356,688,352.73,700.87a4.4,4.4,0,0,0,4.47,5.48l41.41-2.07a4.39,4.39,0,0,0,4.17-4.6l-.46-9.22a4.39,4.39,0,0,0-4.6-4.17Z"/><path class="cls-4" d="M468.19,545.59S501.11,595.8,487,683.13L464.08,692s4.24-81.19-22.18-142"/><path class="cls-69" d="M492.17,678.48s17.25-.82,21.59,12.23a4.56,4.56,0,0,1-4.2,6l-43,1.09a4.54,4.54,0,0,1-4.67-4.43l-.24-9.57a4.54,4.54,0,0,1,4.43-4.67Z"/><path class="cls-70" d="M357.12,616.33l68.3,8.54-5.27,24.21a17.21,17.21,0,0,1-16.43,18l-21.13.94a17.21,17.21,0,0,1-18-16.43Z"/><path class="cls-70" d="M440.94,622.54l67.52-30.27-3,51.49a17.89,17.89,0,0,1-17.07,18.65l-19.8.88A17.86,17.86,0,0,1,450,646.23Z"/><path class="cls-70" d="M354.55,570.55l152.33-6.77,1.81,40.65a29.24,29.24,0,0,1-27.92,30.51l-37.5-10.85-24.84,1.55-31.56,13.48a29.25,29.25,0,0,1-30.51-27.92Z"/><path class="cls-6" d="M389.63,406.07h64.74a46.18,46.18,0,0,1,46.18,46.18V566.14a9.29,9.29,0,0,1-9.29,9.29H352a8.57,8.57,0,0,1-8.57-8.57V452.25A46.18,46.18,0,0,1,389.63,406.07Z" transform="translate(-57.08 55.55) rotate(-7.06)"/><rect class="cls-69" x="349.69" y="564.44" width="165.16" height="23.52" rx="7.38" transform="translate(-49.75 40.92) rotate(-5.13)"/></svg>