<svg id="Warstwa_1" data-name="Warstwa 1" xmlns="http://www.w3.org/2000/svg" xmlns:xlink="http://www.w3.org/1999/xlink" viewBox="0 0 832 766"><defs><style>.cls-1{fill:none;}.cls-2{opacity:0.21;}.cls-3{fill:#ff9e5c;}.cls-4{fill:#ffb37b;}.cls-5{fill:#000060;}.cls-6{fill:#4d4d4d;}.cls-7{fill:#724600;}.cls-8{fill:#fff;}.cls-9{clip-path:url(#clip-path);}.cls-10{fill:#ff69a6;}.cls-11{fill:url(#Gradient_bez_nazwy_61);}.cls-12{fill:#e6e6e6;}.cls-13{fill:#603813;}.cls-14{fill:#0071bc;}</style><clipPath id="clip-path"><path id="SVGID" class="cls-1" d="M359.94,307.58a48.82,48.82,0,1,0,96.59-14.28Z"/></clipPath><linearGradient id="Gradient_bez_nazwy_61" x1="502.26" y1="286.41" x2="177.81" y2="473.74" gradientTransform="translate(-44.46 -207.5) rotate(-7.81)" gradientUnits="userSpaceOnUse"><stop offset="0.01" stop-color="#f19d11"/><stop offset="1" stop-color="#c26619"/></linearGradient></defs><title>Obszar roboczy 6 kopia 3</title><ellipse class="cls-2" cx="398.5" cy="696.77" rx="132.5" ry="35.36"/><rect class="cls-3" x="343.02" y="316.12" width="65.51" height="107.62" rx="29.11" transform="translate(-40.45 46.18) rotate(-6.67)"/><path class="cls-4" d="M488.62,170.26a107.93,107.93,0,0,0-2.37-11.5l-.06.12-.89.56a103.23,103.23,0,0,0-31.84-50.28q-2.54,2.18-5.53,4.32l-.26.18-1.42,1-.05,0c-1.49,1-3.07,2-4.73,3l-.59.35c-.46.27-.92.54-1.4.8l-.67.37q-2.28,1.26-4.77,2.49l-1,.49-1.36.64-1.16.54-1.34.6-1.84.78-1.7.7-1.58.64-1.31.5-1.63.61c-.42.16-.84.32-1.28.47l-2.18.77-1.2.4-2.6.85-1.22.38-2.11.64-1.27.37-2.5.7-.92.25c-1.14.31-2.29.61-3.47.9l-1.08.27-2.64.63-1.31.3-2.77.61-1.11.24-3.95.79-.78.15-3.35.61-1.37.24-3.06.51-1.33.21c-1.45.23-2.92.45-4.42.66-78.87,11.15-121,13.9-131.81,54.54,1.28,23.9,7,48.64,10.18,71,3.2,22.64-30.35,27.38-33.55,4.75q-2.25-15.87-4.49-31.73a31.75,31.75,0,0,0-3.49.28l-1,.14A36.79,36.79,0,0,0,191.78,246c-.14-.38-.29-.76-.44-1.14a40.61,40.61,0,0,0-13,36.48l.12.8c3.24,21.94,22.88,37.22,43.85,34.12l1-.15a35.64,35.64,0,0,0,5.12-1.18.41.41,0,0,1,.52.33c9.93,53.4,58.49,90.05,110.3,82.39l82.55-12.21c53.32-7.88,89.86-59.48,81.61-115.26Z"/><path class="cls-5" d="M346.66,245.06c1,7-2.24,13.3-7.31,14.05s-10-4.32-11.08-11.34,2.24-13.31,7.32-14.06S345.62,238,346.66,245.06Z"/><path class="cls-5" d="M450,229.78c1,7-2.24,13.31-7.32,14.06s-10-4.33-11.07-11.34,2.24-13.31,7.32-14.06S449,222.76,450,229.78Z"/><path class="cls-6" d="M372.42,270.05l-44.77,6.43a14.58,14.58,0,0,1-16.49-12.35l-3.58-24.87a14.6,14.6,0,0,1,12.36-16.5l44.76-6.43a14.59,14.59,0,0,1,16.5,12.36l3.57,24.87A14.58,14.58,0,0,1,372.42,270.05Zm-51.77-42.31a9.55,9.55,0,0,0-8.09,10.81l3.57,24.87a9.56,9.56,0,0,0,10.81,8.09l44.77-6.43a9.56,9.56,0,0,0,8.09-10.81l-3.57-24.87a9.56,9.56,0,0,0-10.81-8.09Z"/><path class="cls-6" d="M478.87,254.77,434.1,261.2a14.6,14.6,0,0,1-16.5-12.36L414,224a14.59,14.59,0,0,1,12.35-16.49l44.77-6.43a14.59,14.59,0,0,1,16.5,12.35l3.57,24.87A14.6,14.6,0,0,1,478.87,254.77ZM427.1,212.45a9.57,9.57,0,0,0-8.1,10.81l3.58,24.87a9.54,9.54,0,0,0,10.8,8.09l44.77-6.43A9.56,9.56,0,0,0,486.24,239l-3.57-24.87A9.55,9.55,0,0,0,471.86,206Z"/><path class="cls-7" d="M295.52,212.39a5,5,0,0,1-2.22-9.74l51.18-18.05a5,5,0,1,1,3.34,9.48l-51.18,18A5,5,0,0,1,295.52,212.39Z"/><path class="cls-7" d="M472.25,184.53l-53.9-4a5.59,5.59,0,0,1,.83-11.09l53.9,4a5.59,5.59,0,0,1-.83,11.09Z"/><path class="cls-8" d="M359.94,307.58a48.82,48.82,0,1,0,96.59-14.28Z"/><g class="cls-9"><ellipse class="cls-10" cx="394.51" cy="347.56" rx="32.16" ry="21.11" transform="matrix(1, -0.07, 0.07, 1, -22.06, 26.77)"/></g><path class="cls-11" d="M473,18.45S421.6,39.36,390.81,32.6s-156.12-22.35-174.4,70.19c-54.65,29-44.39,92.62-24.63,143.2a36.79,36.79,0,0,1,19.29-8.92l1-.14a31.75,31.75,0,0,1,3.49-.28q2.25,15.85,4.49,31.73c3.2,22.63,36.75,17.89,33.55-4.75-3.16-22.33-8.9-47.07-10.18-71,10.79-40.64,52.94-43.39,131.81-54.54,1.5-.21,3-.43,4.42-.66l1.33-.21,3.06-.51,1.37-.24,3.35-.61.78-.15,3.95-.79,1.11-.24,2.77-.61,1.31-.3,2.64-.63,1.08-.27c1.18-.29,2.33-.59,3.47-.9l.93-.25,2.49-.7,1.27-.37,2.11-.64,1.22-.38,2.6-.85,1.2-.4,2.19-.77,1.27-.47,1.63-.61,1.31-.5,1.58-.64,1.7-.7,1.84-.78,1.34-.6,1.16-.54,1.36-.64,1-.49q2.49-1.23,4.77-2.49l.67-.37c.48-.26.94-.53,1.4-.8l.59-.35c1.66-1,3.24-2,4.73-3l.05,0,1.42-1,.26-.18q3-2.15,5.53-4.32a103.23,103.23,0,0,1,31.84,50.28l.89-.56C525.48,85,505.23,36,473,18.45Z"/><path class="cls-4" d="M474.66,440.8s47.57,54.74,128.2-3.53l16.69,19.24s-57.49,68.17-142.28,24.19"/><path class="cls-12" d="M456,424.34h23.82A20.19,20.19,0,0,1,500,444.53V501.9a0,0,0,0,1,0,0h-64.2a0,0,0,0,1,0,0V444.53A20.19,20.19,0,0,1,456,424.34Z" transform="translate(1080.64 222.18) rotate(113.83)"/><path class="cls-4" d="M599.39,439.29s5.71-22.16,22.14-32,15.89,6.4-2.66,20.1c34.55-14.85,54.37-16.93,54.64-8.69.25,7.61-35.86,16.46-35.86,16.46s4.12-.13,4.8,5.91-4.39,6.46-4.39,6.46,4.76-.44,4.53,4.94c-.28,6.32-5.68,5.7-6.6,6,0,0,2.24-.27,2.33,4.54.08,4.24-9.57,6.33-17.63,7.57s-14.43-.05-17.81-7.87"/><path class="cls-12" d="M277.73,435.19h64.2a0,0,0,0,1,0,0v67.7a21.79,21.79,0,0,1-21.79,21.79H299.53a21.79,21.79,0,0,1-21.79-21.79v-67.7A0,0,0,0,1,277.73,435.19Z" transform="translate(457.36 -71.94) rotate(47.81)"/><path class="cls-4" d="M346.51,556.46s31.74,48.4,18.16,132.61l-22.13,8.51s4.09-78.28-21.37-137"/><path class="cls-13" d="M339.61,687.55S323,688,319.73,700.87a4.4,4.4,0,0,0,4.47,5.48l41.41-2.07a4.39,4.39,0,0,0,4.17-4.6l-.46-9.22a4.39,4.39,0,0,0-4.6-4.17Z"/><path class="cls-4" d="M435.19,545.59S468.11,595.8,454,683.13L431.08,692s4.24-81.19-22.18-142"/><path class="cls-13" d="M459.17,678.48s17.25-.82,21.59,12.23a4.56,4.56,0,0,1-4.2,6l-43,1.09a4.54,4.54,0,0,1-4.67-4.43l-.24-9.57a4.54,4.54,0,0,1,4.43-4.67Z"/><path class="cls-14" d="M324.12,616.33l68.3,8.54-5.27,24.21a17.21,17.21,0,0,1-16.43,18l-21.13.94a17.21,17.21,0,0,1-18-16.43Z"/><path class="cls-14" d="M407.94,622.54l67.52-30.27-3,51.49a17.89,17.89,0,0,1-17.07,18.65l-19.8.88A17.86,17.86,0,0,1,417,646.23Z"/><path class="cls-14" d="M321.55,570.55l152.33-6.77,1.81,40.65a29.24,29.24,0,0,1-27.92,30.51l-37.5-10.85-24.84,1.55-31.56,13.48a29.25,29.25,0,0,1-30.51-27.92Z"/><path class="cls-8" d="M356.63,406.07h64.74a46.18,46.18,0,0,1,46.18,46.18V566.14a9.29,9.29,0,0,1-9.29,9.29H319a8.57,8.57,0,0,1-8.57-8.57V452.25a46.18,46.18,0,0,1,46.18-46.18Z" transform="translate(-57.33 51.5) rotate(-7.06)"/><rect class="cls-13" x="316.69" y="564.44" width="165.16" height="23.52" rx="7.38" transform="translate(-49.88 37.98) rotate(-5.13)"/><path class="cls-4" d="M323,558.18s8.54-21.24,26.11-28.86,14.92,8.4-5.25,19.57c36.18-10.23,56.11-9.73,55.3-1.52C398.37,555,361.42,559,361.42,559s4.1.4,4,6.49-5.2,5.82-5.2,5.82,4.78.19,3.85,5.5c-1.1,6.23-6.37,4.91-7.33,5.13,0,0,2.26,0,1.73,4.8-.47,4.22-10.31,5-18.47,5.22s-14.3-1.92-16.63-10.11"/><path class="cls-4" d="M289,516s-27,54.64,40.37,40.66l4.69,24.25S307.68,586.68,286,579c-26.61-9.43-50.82-40.65-15-93"/></svg>