<svg id="Warstwa_1" data-name="Warstwa 1" xmlns="http://www.w3.org/2000/svg" xmlns:xlink="http://www.w3.org/1999/xlink" viewBox="0 0 832 766"><defs><style>.cls-1{fill:none;}.cls-2{opacity:0.21;}.cls-3{fill:#ff9e5c;}.cls-4{fill:#ffb37b;}.cls-5{fill:#000060;}.cls-6{fill:#4d4d4d;}.cls-7{clip-path:url(#clip-path);}.cls-8{fill:#f19d11;}.cls-9{fill:#f09c11;}.cls-10{fill:#ef9b11;}.cls-11{fill:#ee9a11;}.cls-12{fill:#ee9912;}.cls-13{fill:#ed9812;}.cls-14{fill:#ec9712;}.cls-15{fill:#eb9612;}.cls-16{fill:#ea9512;}.cls-17{fill:#e99412;}.cls-18{fill:#e89312;}.cls-19{fill:#e79213;}.cls-20{fill:#e79113;}.cls-21{fill:#e69013;}.cls-22{fill:#e58f13;}.cls-23{fill:#e48e13;}.cls-24{fill:#e38d13;}.cls-25{fill:#e28c14;}.cls-26{fill:#e18b14;}.cls-27{fill:#e08a14;}.cls-28{fill:#e08914;}.cls-29{fill:#df8814;}.cls-30{fill:#de8714;}.cls-31{fill:#dd8614;}.cls-32{fill:#dc8515;}.cls-33{fill:#db8415;}.cls-34{fill:#da8315;}.cls-35{fill:#da8215;}.cls-36{fill:#d98015;}.cls-37{fill:#d87f15;}.cls-38{fill:#d77e15;}.cls-39{fill:#d67d16;}.cls-40{fill:#d57c16;}.cls-41{fill:#d47b16;}.cls-42{fill:#d37a16;}.cls-43{fill:#d37916;}.cls-44{fill:#d27816;}.cls-45{fill:#d17716;}.cls-46{fill:#d07617;}.cls-47{fill:#cf7517;}.cls-48{fill:#ce7417;}.cls-49{fill:#cd7317;}.cls-50{fill:#cc7217;}.cls-51{fill:#cc7117;}.cls-52{fill:#cb7018;}.cls-53{fill:#ca6f18;}.cls-54{fill:#c96e18;}.cls-55{fill:#c86d18;}.cls-56{fill:#c76c18;}.cls-57{fill:#c66b18;}.cls-58{fill:#c56a18;}.cls-59{fill:#c56919;}.cls-60{fill:#c46819;}.cls-61{fill:#c36719;}.cls-62{fill:#c26619;}.cls-63{clip-path:url(#clip-path-2);}.cls-64{fill:#724600;}.cls-65{fill:#fff;}.cls-66{clip-path:url(#clip-path-3);}.cls-67{fill:#ff69a6;}.cls-68{fill:#e6e6e6;}.cls-69{fill:#603813;}.cls-70{fill:#0071bc;}</style><clipPath id="clip-path"><path id="SVGID" class="cls-1" d="M472.34,14.56S420.78,35.9,389.79,29.31,232.75,7.84,215,101c-54.73,29.51-44,93.37-23.83,144.08a37,37,0,0,1,19.33-9.1l1-.14a35.16,35.16,0,0,1,3.51-.31l4.71,31.86c3.36,22.73,37.05,17.75,33.69-5-3.32-22.42-9.24-47.25-10.68-71.26,10.58-40.91,52.92-44,132.12-55.66q2.25-.33,4.44-.69l1.33-.22,3.07-.53,1.37-.25,3.38-.64.77-.15c1.35-.27,2.66-.54,4-.82l1.12-.25,2.78-.63,1.31-.31,2.66-.65L402,130l3.48-.93.93-.26,2.5-.72,1.28-.38,2.12-.66,1.22-.39c.88-.28,1.75-.57,2.6-.86l1.21-.42,2.19-.78,1.28-.48,1.63-.62,1.31-.52c.54-.21,1.07-.43,1.59-.65s1.15-.47,1.7-.71l1.85-.81,1.34-.61,1.16-.54,1.37-.66,1-.5c1.66-.83,3.26-1.67,4.78-2.53l.67-.37c.47-.27.94-.54,1.4-.82l.59-.35c1.67-1,3.24-2,4.73-3l0,0,1.43-1,.25-.18c2-1.45,3.85-2.91,5.54-4.37a103.72,103.72,0,0,1,32.31,50.32l.9-.56C525.47,81.14,504.81,32,472.34,14.56Z"/></clipPath><clipPath id="clip-path-2"><path id="SVGID-2" data-name="SVGID" class="cls-1" d="M228.41,314.92l-.7.2c.91,1.37,1.41,2.1,1.41,2.1l.18-.12c-.13-.61-.25-1.23-.37-1.85A.41.41,0,0,0,228.41,314.92Z"/></clipPath><clipPath id="clip-path-3"><path id="SVGID-3" data-name="SVGID" class="cls-1" d="M359.94,307.58a48.82,48.82,0,1,0,96.59-14.28Z"/></clipPath></defs><title>Obszar roboczy 6 kopia 3</title><ellipse class="cls-2" cx="398.5" cy="696.77" rx="132.5" ry="35.36"/><rect class="cls-3" x="343.02" y="316.12" width="65.51" height="107.62" rx="29.11" transform="translate(-40.45 46.18) rotate(-6.67)"/><path class="cls-4" d="M488.62,170.26a104.35,104.35,0,0,0-35.37-64.41c-13.8,12-37.58,23.56-78.48,29.6-79.2,11.71-121.54,14.75-132.12,55.66,1.44,24,7.36,48.84,10.68,71.26,3.36,22.73-30.33,27.71-33.69,5l-4.71-31.86a35.16,35.16,0,0,0-3.51.31l-1,.14c-21,3.11-35.38,23.43-32.13,45.39l.12.8c3.24,21.94,22.88,37.22,43.85,34.12l1-.15a35.64,35.64,0,0,0,5.12-1.18.41.41,0,0,1,.52.33c9.93,53.4,58.49,90.05,110.3,82.39l82.55-12.21c53.32-7.88,89.86-59.48,81.61-115.26Z"/><path class="cls-5" d="M346.66,245.06c1,7-2.24,13.3-7.31,14.05s-10-4.32-11.08-11.34,2.24-13.31,7.32-14.06S345.62,238,346.66,245.06Z"/><path class="cls-5" d="M450,229.78c1,7-2.24,13.31-7.32,14.06s-10-4.33-11.07-11.34,2.24-13.31,7.32-14.06S449,222.76,450,229.78Z"/><path class="cls-6" d="M372.42,270.05l-44.77,6.43a14.58,14.58,0,0,1-16.49-12.35l-3.58-24.87a14.6,14.6,0,0,1,12.36-16.5l44.76-6.43a14.59,14.59,0,0,1,16.5,12.36l3.57,24.87A14.58,14.58,0,0,1,372.42,270.05Zm-51.77-42.31a9.55,9.55,0,0,0-8.09,10.81l3.57,24.87a9.56,9.56,0,0,0,10.81,8.09l44.77-6.43a9.56,9.56,0,0,0,8.09-10.81l-3.57-24.87a9.56,9.56,0,0,0-10.81-8.09Z"/><path class="cls-6" d="M478.87,254.77,434.1,261.2a14.6,14.6,0,0,1-16.5-12.36L414,224a14.59,14.59,0,0,1,12.35-16.49l44.77-6.43a14.59,14.59,0,0,1,16.5,12.35l3.57,24.87A14.6,14.6,0,0,1,478.87,254.77ZM427.1,212.45a9.57,9.57,0,0,0-8.1,10.81l3.58,24.87a9.54,9.54,0,0,0,10.8,8.09l44.77-6.43A9.56,9.56,0,0,0,486.24,239l-3.57-24.87A9.55,9.55,0,0,0,471.86,206Z"/><g class="cls-7"><polygon class="cls-8" points="519.53 39.74 467.9 -25.93 509.24 -31.87 519.53 39.74"/><polygon class="cls-8" points="521.48 53.3 460.07 -24.81 467.9 -25.93 519.53 39.74 521.48 53.3"/><polygon class="cls-9" points="523.42 66.85 452.25 -23.68 460.07 -24.81 521.48 53.3 523.42 66.85"/><polygon class="cls-10" points="525.37 80.4 444.43 -22.56 452.25 -23.68 523.42 66.85 525.37 80.4"/><polygon class="cls-11" points="527.32 93.95 436.6 -21.43 444.43 -22.56 525.37 80.4 527.32 93.95"/><polygon class="cls-12" points="529.26 107.51 428.77 -20.31 436.6 -21.43 527.32 93.95 529.26 107.51"/><polygon class="cls-13" points="531.21 121.06 420.95 -19.19 428.77 -20.31 529.26 107.51 531.21 121.06"/><polygon class="cls-14" points="531.46 122.79 526.76 126.48 413.13 -18.06 420.95 -19.19 531.21 121.06 531.46 122.79"/><polygon class="cls-15" points="526.76 126.48 521.38 130.71 405.3 -16.94 413.13 -18.06 526.76 126.48"/><polygon class="cls-16" points="521.38 130.71 516 134.94 397.48 -15.82 405.3 -16.94 521.38 130.71"/><polygon class="cls-17" points="516 134.94 510.62 139.17 389.65 -14.69 397.48 -15.82 516 134.94"/><polygon class="cls-18" points="510.62 139.17 505.23 143.41 381.83 -13.57 389.65 -14.69 510.62 139.17"/><polygon class="cls-19" points="505.23 143.41 499.85 147.64 374 -12.44 381.83 -13.57 505.23 143.41"/><polygon class="cls-20" points="499.85 147.64 494.47 151.87 366.18 -11.32 374 -12.44 499.85 147.64"/><polygon class="cls-21" points="494.47 151.87 489.09 156.1 358.35 -10.2 366.18 -11.32 494.47 151.87"/><polygon class="cls-22" points="489.09 156.1 483.71 160.33 350.53 -9.07 358.35 -10.2 489.09 156.1"/><polygon class="cls-23" points="483.71 160.33 478.32 164.56 342.7 -7.95 350.53 -9.07 483.71 160.33"/><polygon class="cls-24" points="478.32 164.56 472.94 168.79 334.88 -6.83 342.7 -7.95 478.32 164.56"/><polygon class="cls-25" points="472.94 168.79 467.56 173.02 327.06 -5.7 334.88 -6.83 472.94 168.79"/><polygon class="cls-26" points="467.56 173.02 462.18 177.25 319.23 -4.58 327.06 -5.7 467.56 173.02"/><polygon class="cls-27" points="462.18 177.25 456.8 181.49 311.41 -3.45 319.23 -4.58 462.18 177.25"/><polygon class="cls-28" points="456.8 181.49 451.42 185.72 303.58 -2.33 311.41 -3.45 456.8 181.49"/><polygon class="cls-29" points="451.42 185.72 446.03 189.95 295.76 -1.21 303.58 -2.33 451.42 185.72"/><polygon class="cls-30" points="446.03 189.95 440.65 194.18 287.93 -0.08 295.76 -1.21 446.03 189.95"/><polygon class="cls-31" points="440.65 194.18 435.27 198.41 280.11 1.04 287.93 -0.08 440.65 194.18"/><polygon class="cls-32" points="435.27 198.41 429.89 202.64 272.28 2.17 280.11 1.04 435.27 198.41"/><polygon class="cls-33" points="429.89 202.64 424.51 206.87 264.46 3.29 272.28 2.17 429.89 202.64"/><polygon class="cls-34" points="424.51 206.87 419.13 211.1 256.63 4.41 264.46 3.29 424.51 206.87"/><polygon class="cls-35" points="419.13 211.1 413.74 215.33 248.81 5.54 256.63 4.41 419.13 211.1"/><polygon class="cls-36" points="413.74 215.33 408.36 219.56 240.98 6.66 248.81 5.54 413.74 215.33"/><polygon class="cls-37" points="408.36 219.56 402.98 223.79 233.16 7.78 240.98 6.66 408.36 219.56"/><polygon class="cls-38" points="402.98 223.79 397.6 228.03 226.41 10.27 228.77 8.41 233.16 7.78 402.98 223.79"/><rect class="cls-39" x="305.89" y="-17.23" width="6.85" height="276.99" transform="translate(-8.8 217.1) rotate(-38.17)"/><rect class="cls-40" x="300.51" y="-13" width="6.85" height="276.99" transform="translate(-12.57 214.68) rotate(-38.17)"/><rect class="cls-41" x="295.13" y="-8.77" width="6.85" height="276.99" transform="translate(-16.33 212.26) rotate(-38.17)"/><rect class="cls-42" x="289.74" y="-4.54" width="6.85" height="276.99" transform="translate(-20.1 209.84) rotate(-38.17)"/><rect class="cls-43" x="284.36" y="-0.3" width="6.85" height="276.99" transform="translate(-23.86 207.41) rotate(-38.17)"/><rect class="cls-44" x="278.98" y="3.93" width="6.85" height="276.99" transform="matrix(0.79, -0.62, 0.62, 0.79, -27.63, 204.99)"/><rect class="cls-45" x="273.6" y="8.16" width="6.85" height="276.99" transform="translate(-31.39 202.57) rotate(-38.17)"/><rect class="cls-46" x="268.22" y="12.39" width="6.85" height="276.99" transform="translate(-35.16 200.15) rotate(-38.17)"/><rect class="cls-47" x="262.83" y="16.62" width="6.85" height="276.99" transform="translate(-38.93 197.73) rotate(-38.17)"/><rect class="cls-48" x="257.45" y="20.85" width="6.85" height="276.99" transform="translate(-42.69 195.31) rotate(-38.17)"/><polygon class="cls-49" points="343.78 270.34 340.05 273.27 337.65 273.61 167.21 56.81 172.59 52.58 343.78 270.34"/><polygon class="cls-50" points="329.82 274.74 161.83 61.05 167.21 56.81 337.65 273.61 329.82 274.74"/><polygon class="cls-51" points="322 275.86 156.44 65.28 161.83 61.05 329.82 274.74 322 275.86"/><polygon class="cls-52" points="314.17 276.98 151.56 70.14 151.43 69.22 156.44 65.28 322 275.86 314.17 276.98"/><polygon class="cls-53" points="306.35 278.11 153.51 83.69 151.56 70.14 314.17 276.98 306.35 278.11"/><polygon class="cls-54" points="298.52 279.23 155.45 97.25 153.51 83.69 306.35 278.11 298.52 279.23"/><polygon class="cls-55" points="290.7 280.36 157.4 110.8 155.45 97.25 298.52 279.23 290.7 280.36"/><polygon class="cls-56" points="282.87 281.48 159.35 124.35 157.4 110.8 290.7 280.36 282.87 281.48"/><polygon class="cls-57" points="275.05 282.6 161.29 137.91 159.35 124.35 282.87 281.48 275.05 282.6"/><polygon class="cls-58" points="267.23 283.73 163.24 151.46 161.29 137.91 275.05 282.6 267.23 283.73"/><polygon class="cls-59" points="259.4 284.85 165.19 165.01 163.24 151.46 267.23 283.73 259.4 284.85"/><polygon class="cls-60" points="251.57 285.98 167.13 178.56 165.19 165.01 259.4 284.85 251.57 285.98"/><polygon class="cls-61" points="243.75 287.1 169.08 192.12 167.13 178.56 251.57 285.98 243.75 287.1"/><polygon class="cls-62" points="235.93 288.22 171.03 205.67 169.08 192.12 243.75 287.1 235.93 288.22"/><polygon class="cls-62" points="171.03 205.67 235.93 288.22 183.95 295.69 171.03 205.67"/></g><g class="cls-63"><rect class="cls-8" x="227.86" y="314.88" width="1.29" height="2.41" transform="matrix(0.99, -0.14, 0.14, 0.99, -42.62, 35.7)"/></g><path class="cls-64" d="M295.52,212.39a5,5,0,0,1-2.22-9.74l51.18-18.05a5,5,0,1,1,3.34,9.48l-51.18,18A5,5,0,0,1,295.52,212.39Z"/><path class="cls-64" d="M472.25,184.53l-53.9-4a5.59,5.59,0,0,1,.83-11.09l53.9,4a5.59,5.59,0,0,1-.83,11.09Z"/><path class="cls-65" d="M359.94,307.58a48.82,48.82,0,1,0,96.59-14.28Z"/><g class="cls-66"><ellipse class="cls-67" cx="394.51" cy="347.56" rx="32.16" ry="21.11" transform="translate(-22.06 26.77) rotate(-3.78)"/></g><path class="cls-4" d="M474.66,440.8s47.57,54.74,128.2-3.53l16.69,19.24s-57.49,68.17-142.28,24.19"/><path class="cls-68" d="M456,424.34h23.82A20.19,20.19,0,0,1,500,444.53V501.9a0,0,0,0,1,0,0h-64.2a0,0,0,0,1,0,0V444.53A20.19,20.19,0,0,1,456,424.34Z" transform="translate(1080.64 222.18) rotate(113.83)"/><path class="cls-4" d="M599.39,439.29s5.71-22.16,22.14-32,15.89,6.4-2.66,20.1c34.55-14.85,54.37-16.93,54.64-8.69.25,7.61-35.86,16.46-35.86,16.46s4.12-.13,4.8,5.91-4.39,6.46-4.39,6.46,4.76-.44,4.53,4.94c-.28,6.32-5.68,5.7-6.6,6,0,0,2.24-.27,2.33,4.54.08,4.24-9.57,6.33-17.63,7.57s-14.43-.05-17.81-7.87"/><path class="cls-68" d="M277.73,435.19h64.2a0,0,0,0,1,0,0v67.7a21.79,21.79,0,0,1-21.79,21.79H299.53a21.79,21.79,0,0,1-21.79-21.79v-67.7A0,0,0,0,1,277.73,435.19Z" transform="translate(457.36 -71.94) rotate(47.81)"/><path class="cls-4" d="M346.51,556.46s31.74,48.4,18.16,132.61l-22.13,8.51s4.09-78.28-21.37-137"/><path class="cls-69" d="M339.61,687.55S323,688,319.73,700.87a4.4,4.4,0,0,0,4.47,5.48l41.41-2.07a4.39,4.39,0,0,0,4.17-4.6l-.46-9.22a4.39,4.39,0,0,0-4.6-4.17Z"/><path class="cls-4" d="M435.19,545.59S468.11,595.8,454,683.13L431.08,692s4.24-81.19-22.18-142"/><path class="cls-69" d="M459.17,678.48s17.25-.82,21.59,12.23a4.56,4.56,0,0,1-4.2,6l-43,1.09a4.54,4.54,0,0,1-4.67-4.43l-.24-9.57a4.54,4.54,0,0,1,4.43-4.67Z"/><path class="cls-70" d="M324.12,616.33l68.3,8.54-5.27,24.21a17.21,17.21,0,0,1-16.43,18l-21.13.94a17.21,17.21,0,0,1-18-16.43Z"/><path class="cls-70" d="M407.94,622.54l67.52-30.27-3,51.49a17.89,17.89,0,0,1-17.07,18.65l-19.8.88A17.86,17.86,0,0,1,417,646.23Z"/><path class="cls-70" d="M321.55,570.55l152.33-6.77,1.81,40.65a29.24,29.24,0,0,1-27.92,30.51l-37.5-10.85-24.84,1.55-31.56,13.48a29.25,29.25,0,0,1-30.51-27.92Z"/><path class="cls-65" d="M356.63,406.07h64.74a46.18,46.18,0,0,1,46.18,46.18V566.14a9.29,9.29,0,0,1-9.29,9.29H319a8.57,8.57,0,0,1-8.57-8.57V452.25A46.18,46.18,0,0,1,356.63,406.07Z" transform="translate(-57.33 51.5) rotate(-7.06)"/><rect class="cls-69" x="316.69" y="564.44" width="165.16" height="23.52" rx="7.38" transform="translate(-49.88 37.98) rotate(-5.13)"/><path class="cls-4" d="M323,558.18s8.54-21.24,26.11-28.86,14.92,8.4-5.25,19.57c36.18-10.23,56.11-9.73,55.3-1.52C398.37,555,361.42,559,361.42,559s4.1.4,4,6.49-5.2,5.82-5.2,5.82,4.78.19,3.85,5.5c-1.1,6.23-6.37,4.91-7.33,5.13,0,0,2.26,0,1.73,4.8-.47,4.22-10.31,5-18.47,5.22s-14.3-1.92-16.63-10.11"/><path class="cls-4" d="M289,516s-27,54.64,40.37,40.66l4.69,24.25S307.68,586.68,286,579c-26.61-9.43-50.82-40.65-15-93"/></svg>