<svg id="Warstwa_1" data-name="Warstwa 1" xmlns="http://www.w3.org/2000/svg" xmlns:xlink="http://www.w3.org/1999/xlink" viewBox="0 0 832 766"><defs><style>.cls-1,.cls-7{fill:none;}.cls-2{opacity:0.21;}.cls-3{fill:#ff9e5c;}.cls-4{fill:#ffb37b;}.cls-5{fill:#4d4d4d;}.cls-6{fill:#724600;}.cls-7{stroke:#000060;stroke-width:5px;}.cls-16,.cls-17,.cls-7{stroke-linecap:round;stroke-linejoin:round;}.cls-8{fill:#fff;}.cls-9{clip-path:url(#clip-path);}.cls-10{fill:#ff69a6;}.cls-11{fill:url(#Gradient_bez_nazwy_61);}.cls-12{fill:url(#Gradient_bez_nazwy_61-2);}.cls-13,.cls-16,.cls-17{fill:#e6e6e6;}.cls-14{fill:#603813;}.cls-15{fill:#0071bc;}.cls-16,.cls-17{stroke:gray;}.cls-16{stroke-width:6px;}.cls-17{stroke-width:4px;}.cls-18{fill:#003b67;}.cls-19{fill:#f6921e;}.cls-20{fill:#ffc906;}.cls-21{fill:#1b75bb;}.cls-22{fill:#25a9e0;}.cls-23{fill:#009345;}.cls-24{fill:#8bc53f;}.cls-25{fill:#8a5d3b;}.cls-26{fill:#9a8479;}.cls-27{fill:#c1b49a;}.cls-28{fill:#ee4036;}.cls-29{fill:#be1e2d;}.cls-30{fill:#e6e7e8;}.cls-31{fill:#d0d2d3;}.cls-32{fill:#f37721;}.cls-33{fill:#f89e1c;}.cls-34{fill:#fbfbfa;}</style><clipPath id="clip-path"><circle id="SVGID" class="cls-1" cx="473.75" cy="321.7" r="23.5"/></clipPath><linearGradient id="Gradient_bez_nazwy_61" x1="602.75" y1="14.25" x2="278.3" y2="201.58" gradientUnits="userSpaceOnUse"><stop offset="0.01" stop-color="#f19d11"/><stop offset="1" stop-color="#c26619"/></linearGradient><linearGradient id="Gradient_bez_nazwy_61-2" x1="301.26" y1="283.6" x2="-18.57" y2="468.25" xlink:href="#Gradient_bez_nazwy_61"/></defs><title>Obszar roboczy 6</title><ellipse class="cls-2" cx="374.5" cy="714.77" rx="132.5" ry="35.36"/><rect class="cls-3" x="364.97" y="337.18" width="107.62" height="65.51" rx="29.11" transform="translate(22.95 764.32) rotate(-86.35)"/><path class="cls-4" d="M550.77,109.21Q548,111,544.7,112.74l-.28.14c-.51.26-1,.53-1.55.79l0,0c-1.61.8-3.31,1.57-5.08,2.32l-.64.26-1.5.61-.71.27c-1.62.63-3.31,1.23-5.06,1.82l-1.07.35-1.44.45-1.22.37-1.41.41-1.93.53-1.77.47-1.66.41-1.36.32-1.7.38-1.33.29-2.27.46-1.24.24-2.69.49-1.26.21-2.18.34-1.31.2-2.57.35-.95.13c-1.16.15-2.35.29-3.55.42l-1.11.12-2.71.26c-.44,0-.89.08-1.33.12l-2.83.23-1.14.09-4,.25-.79,0-3.41.16-1.39,0-3.1.08c-.45,0-.89,0-1.35,0-1.47,0-2.95.05-4.47.06-79.65.33-121.78-2.67-138,36.12-2,23.86.35,49.15.44,71.7.09,22.86-33.79,23-33.89.14q-.06-16-.13-32a31.18,31.18,0,0,0-3.5-.19h-1a36.74,36.74,0,0,0-20.31,6.22c-.13-.53-.26-1.06-.38-1.59A40.52,40.52,0,0,0,253,242.5v.81c-.08,22.18,17,40.23,38.24,40.31h1a36.09,36.09,0,0,0,5.24-.41.42.42,0,0,1,.47.41c1.81,54.28,44.31,97.8,96.69,98l83.45.32c53.89.21,97.76-45.33,98-101.71l.39-101A128.87,128.87,0,0,0,575,160.4,103.19,103.19,0,0,0,550.77,109.21ZM300.13,285.69s-.4-.8-1.09-2.27l.72-.1a.4.4,0,0,1,.46.4c0,.63.06,1.25.1,1.88Z"/><path class="cls-5" d="M447.15,256.52l-45.22-.36a14.59,14.59,0,0,1-14.46-14.69l.2-25.12a14.59,14.59,0,0,1,14.69-14.46l45.22.36A14.59,14.59,0,0,1,462,216.94l-.2,25.12A14.59,14.59,0,0,1,447.15,256.52Zm-44.83-49.6a9.54,9.54,0,0,0-9.62,9.47l-.2,25.12a9.56,9.56,0,0,0,9.47,9.63l45.22.36a9.56,9.56,0,0,0,9.62-9.48l.2-25.12a9.54,9.54,0,0,0-9.47-9.62Z"/><path class="cls-5" d="M554.69,257.38,509.46,257A14.61,14.61,0,0,1,495,242.33l.2-25.13a14.59,14.59,0,0,1,14.69-14.45l45.23.36a14.58,14.58,0,0,1,14.45,14.68l-.2,25.13A14.59,14.59,0,0,1,554.69,257.38Zm-44.84-49.61a9.56,9.56,0,0,0-9.62,9.47l-.2,25.13A9.56,9.56,0,0,0,509.5,252l45.23.36a9.56,9.56,0,0,0,9.62-9.47l.2-25.13a9.56,9.56,0,0,0-9.47-9.62Z"/><path class="cls-6" d="M379.52,192.8a5,5,0,0,1-1.06-9.93l53-11.91a5,5,0,0,1,2.2,9.81l-52.95,11.91A5.59,5.59,0,0,1,379.52,192.8Z"/><path class="cls-6" d="M555.85,183.64l-54,5.42a5,5,0,1,1-1-10l54-5.42a5,5,0,1,1,1,10Z"/><path class="cls-7" d="M441.63,224.4s-19.13,20.88-36-.22"/><path class="cls-7" d="M547.86,226s-20,20.11-36-1.65"/><circle class="cls-8" cx="473.75" cy="321.7" r="23.5"/><g class="cls-9"><ellipse class="cls-10" cx="454.25" cy="337" rx="21.11" ry="32.16" transform="translate(80.07 761.14) rotate(-85.15)"/></g><path class="cls-11" d="M582.48,22s-53.79,13.73-83.38,2.85S347.47-18.5,316.78,70.69C258.69,92,260.21,156.42,272.93,209.22A36.74,36.74,0,0,1,293.24,203h1a31.18,31.18,0,0,1,3.5.19q.07,16,.13,32c.1,22.86,34,22.72,33.89-.14-.09-22.55-2.42-47.84-.44-71.7,16.21-38.79,58.34-35.79,138-36.12,1.52,0,3,0,4.47-.06.46,0,.9,0,1.35,0l3.1-.08,1.39,0,3.41-.16.79,0,4-.25,1.14-.09,2.83-.23c.44,0,.89-.07,1.33-.12l2.71-.26,1.11-.12c1.2-.13,2.39-.27,3.55-.42l.95-.13,2.57-.35,1.31-.2,2.18-.34,1.26-.21,2.69-.49,1.24-.24,2.27-.46,1.33-.29,1.7-.38,1.36-.32,1.66-.41,1.77-.47,1.93-.53,1.41-.41,1.22-.37,1.44-.45,1.07-.35c1.75-.59,3.44-1.19,5.06-1.82l.71-.27,1.5-.61.64-.26c1.77-.75,3.47-1.52,5.08-2.32l0,0c.53-.26,1-.53,1.55-.79l.28-.14q3.27-1.71,6.07-3.53a103.3,103.3,0,0,1,24.71,54.14l1-.43C625.4,95.09,612,43.79,582.48,22Z"/><path class="cls-12" d="M299.76,283.32l-.72.1c.69,1.47,1.09,2.26,1.09,2.26l.19-.08c0-.63-.07-1.25-.1-1.88A.4.4,0,0,0,299.76,283.32Z"/><path class="cls-4" d="M187.7,471.76l-37.58,5.05s-21-1.14-25.31,6.84,25.24,7.89,25.24,7.89-19.1,1.91-20.53,8.24S157,503.09,157,503.09s-11.34,2.55-10.06,9.06,37,1.51,49.39-17.8l1.81-12A9.3,9.3,0,0,0,187.7,471.76Z"/><path class="cls-4" d="M316.94,438.13S288.74,505,194,474.63l-9.89,23.49S260,545,326.86,476.87"/><path class="cls-13" d="M293.45,409.38h64.2a0,0,0,0,1,0,0v79.4A23.66,23.66,0,0,1,334,512.43H317.11a23.66,23.66,0,0,1-23.66-23.66v-79.4a0,0,0,0,1,0,0Z" transform="translate(561.38 -51.74) rotate(59.94)"/><path class="cls-4" d="M323.21,544.35s.29,60.45-87.21,79.22l.13,21.24s77.9,1.36,108.59-76.7"/><path class="cls-14" d="M240.47,644.78s-5.45,15.74-18.69,15a4.4,4.4,0,0,1-3.88-5.91l14.42-38.88a4.39,4.39,0,0,1,5.64-2.59l8.65,3.21a4.38,4.38,0,0,1,2.59,5.64Z"/><path class="cls-4" d="M623.7,389.44l37.91.74s20.7-3.51,25.92,3.91-24.18,10.72-24.18,10.72,19.19-.28,21.34,5.85-26.92,6.41-26.92,6.41,11.55,1.25,11,7.86-36.56,5.71-51.09-12.06l-3.17-11.69A9.31,9.31,0,0,1,623.7,389.44Z"/><path class="cls-4" d="M494.71,437.94s61.12,39,122-39.67L638.12,412s-35.84,81.65-129.62,63.46"/><path class="cls-13" d="M482.67,422.47H506.5a20.19,20.19,0,0,1,20.19,20.19V500a0,0,0,0,1,0,0h-64.2a0,0,0,0,1,0,0V442.66a20.19,20.19,0,0,1,20.19-20.19Z" transform="translate(1015.62 30.1) rotate(97.39)"/><path class="cls-4" d="M418.88,566.17S431,625,385.82,701l-24.59-.23s33.8-73.94,31.62-140.24"/><path class="cls-14" d="M387.54,695.5s17.28-.08,21,13.14a4.56,4.56,0,0,1-4.45,5.83l-43-.74a4.56,4.56,0,0,1-4.48-4.63l.17-9.58a4.55,4.55,0,0,1,4.63-4.47Z"/><path class="cls-15" d="M309.21,553.36,353,602l-26.56,20.27a17.22,17.22,0,0,1-24.34-.41l-14.7-15.21a17.19,17.19,0,0,1,.41-24.33Z"/><path class="cls-15" d="M367,604l65-10.79-6.1,51.21A17.88,17.88,0,0,1,407.71,662l-19.82-.33a17.88,17.88,0,0,1-17.58-18.17Z"/><path class="cls-15" d="M317.21,521.07l136.47,68L435.53,625.5a29.24,29.24,0,0,1-39.21,13.13l-27.53-27.69-22.47-10.7-34.13-3.53a29.24,29.24,0,0,1-13.13-39.22Z"/><path class="cls-8" d="M369.2,402h64.74a46.18,46.18,0,0,1,46.18,46.18V562.07a9.29,9.29,0,0,1-9.29,9.29H331.59a8.57,8.57,0,0,1-8.57-8.57V448.18A46.18,46.18,0,0,1,369.2,402Z" transform="translate(120.5 -78.22) rotate(13.07)"/><rect class="cls-14" x="370.65" y="480.36" width="23.52" height="165.16" rx="7.38" transform="translate(-268.29 762.25) rotate(-72.84)"/><rect class="cls-16" x="23" y="471.8" width="184.3" height="5.2" rx="2.52"/><polygon class="cls-17" points="216.48 471.8 88.91 471.8 133.43 386 261 386 216.48 471.8"/><path class="cls-18" d="M147.8,423.28c-2.47,6.88-1.74,17.77,4.82,24.58,6.39,6.58,15.79,11.81,30.69,3.94s20.24-22.61,18.91-31.83a12.92,12.92,0,0,0-9.82-10.87c-6.51-1-10.42,3.42-12.63,6.48-.81,1.12-2.56,3.35-3,3.9a5.19,5.19,0,0,1-5.46,2.39c-2.87-.7-4.61-4-3.88-7.42a9.17,9.17,0,0,0,0-3.44c-1.36-5.32-6.62-3.73-9.4-2.13C154.83,410.7,150.28,416.39,147.8,423.28Z"/><path class="cls-8" d="M183.89,425.24c-2.1-1.35-2.44-4.76-.77-7.62s4.72-4.1,6.81-2.76,2.44,4.76.77,7.63S186,426.59,183.89,425.24Z"/><ellipse class="cls-19" cx="194.27" cy="430.83" rx="3.58" ry="3.82"/><path class="cls-20" d="M197.39,432.69a3.46,3.46,0,0,1-4.87,1.47l3.5-6.66A4,4,0,0,1,197.39,432.69Z"/><ellipse class="cls-21" cx="181.94" cy="445.18" rx="3.58" ry="3.82"/><path class="cls-22" d="M185.07,447a3.47,3.47,0,0,1-4.88,1.47l3.5-6.66A3.94,3.94,0,0,1,185.07,447Z"/><ellipse class="cls-23" cx="164.65" cy="448.44" rx="3.58" ry="3.82"/><path class="cls-24" d="M167.77,450.3a3.46,3.46,0,0,1-4.87,1.47l3.49-6.66A3.94,3.94,0,0,1,167.77,450.3Z"/><ellipse class="cls-14" cx="152.68" cy="435.48" rx="3.58" ry="3.82"/><path class="cls-25" d="M155.81,437.34a3.47,3.47,0,0,1-4.88,1.47l3.5-6.66A3.94,3.94,0,0,1,155.81,437.34Z"/><ellipse class="cls-26" cx="158.1" cy="419.17" rx="3.58" ry="3.82"/><path class="cls-27" d="M161.22,421a3.46,3.46,0,0,1-4.87,1.47l3.5-6.66A4,4,0,0,1,161.22,421Z"/><path class="cls-28" d="M194.48,402.72c-.36.47-2.39,3.69-2.39,3.69l1,.6,2.6-5C195.34,401.84,194.79,402.13,194.48,402.72Z"/><path class="cls-29" d="M195.82,403.51c.31-.58.26-1.23-.11-1.46l-2.6,5,1,.61S195.64,404.09,195.82,403.51Z"/><path class="cls-29" d="M176,442.23s3.93-6,9.12-15.85,9-18.58,9-18.58l-1-.61-18.07,34.43Z"/><path class="cls-28" d="M181.82,424.44c-5.19,9.9-7.9,16.57-7.9,16.57l1,.61L193,407.19l-1-.6S187,414.54,181.82,424.44Z"/><polygon class="cls-29" points="173.25 446.54 175.83 442.48 174.8 441.87 172.56 446.14 173.25 446.54"/><polygon class="cls-28" points="171.88 445.73 172.56 446.14 174.8 441.87 173.78 441.26 171.88 445.73"/><path class="cls-30" d="M173,448.28a1.49,1.49,0,0,0-.52-2l-4,7.56C169.15,454.27,172.63,449,173,448.28Z"/><path class="cls-31" d="M170.63,446.87c-.37.7-2.78,6.62-2.13,7l4-7.56A1.31,1.31,0,0,0,170.63,446.87Z"/><path class="cls-32" d="M196.41,412c-.45.22-3.18,1.95-3.18,1.95l.59.88,3.79-2.87C197.39,411.63,196.85,411.64,196.41,412Z"/><path class="cls-33" d="M197.18,413.13a1,1,0,0,0,.43-1.19l-3.79,2.87.58.88S196.83,413.51,197.18,413.13Z"/><path class="cls-33" d="M168,435.72s5.18-3.13,12.73-8.86,13.56-11.06,13.56-11.06l-.59-.88-26.29,19.92Z"/><path class="cls-32" d="M178.83,424.05c-7.55,5.72-12,9.9-12,9.9l.58.89,26.29-19.92-.59-.88S186.39,418.32,178.83,424.05Z"/><polygon class="cls-33" points="164.34 438.04 167.8 435.87 167.2 434.98 163.95 437.45 164.34 438.04"/><polygon class="cls-32" points="163.55 436.86 163.95 437.45 167.2 434.98 166.61 434.09 163.55 436.86"/><path class="cls-30" d="M163.53,439.31a1.32,1.32,0,0,0,.28-1.76L158,441.93C158.41,442.49,163,439.71,163.53,439.31Z"/><path class="cls-31" d="M162.16,437.26c-.53.4-4.5,4.1-4.13,4.67l5.78-4.38A1.14,1.14,0,0,0,162.16,437.26Z"/><rect class="cls-16" x="586" y="386.8" width="184.3" height="5.2" rx="2.52"/><polygon class="cls-17" points="779.48 386.8 651.91 386.8 696.43 301 824 301 779.48 386.8"/><circle class="cls-5" cx="736" cy="346" r="27"/><path class="cls-34" d="M742.64,332.78c-.07.25-.13.53-.23.8q-5,13-9.92,25.94c-.4,1-1.17,1.48-2,1.22a1.57,1.57,0,0,1-.92-2.21q2-5.13,3.91-10.25,3-7.89,6-15.79a1.63,1.63,0,0,1,1.63-1.27,1.47,1.47,0,0,1,1.39,1C742.57,332.41,742.59,332.58,742.64,332.78Z"/><path class="cls-34" d="M718.64,346l7.24,4.47a6.38,6.38,0,0,1,.82.53,1.46,1.46,0,0,1,.4,2,1.42,1.42,0,0,1-2,.58c-2.81-1.68-5.63-3.34-8.35-5.15a3.12,3.12,0,0,1,.13-5c2.66-1.72,5.38-3.36,8.09-5a1.54,1.54,0,1,1,1.56,2.65c-2.22,1.39-4.46,2.75-6.7,4.13Z"/><path class="cls-34" d="M753.37,346l-7.25-4.47a8.57,8.57,0,0,1-.81-.52,1.47,1.47,0,0,1-.36-2.07,1.39,1.39,0,0,1,1.95-.53c2.8,1.69,5.62,3.35,8.35,5.16a3.12,3.12,0,0,1-.1,5c-2.66,1.73-5.39,3.36-8.1,5a1.54,1.54,0,1,1-1.58-2.64c2.19-1.38,4.4-2.73,6.61-4.09Z"/></svg>